<?xml version="1.0" standalone="no"?>
<!DOCTYPE svg PUBLIC "-//W3C//DTD SVG 20010904//EN"
 "http://www.w3.org/TR/2001/REC-SVG-20010904/DTD/svg10.dtd">
<svg version="1.0" xmlns="http://www.w3.org/2000/svg"
 width="1089.000000pt" height="1089.000000pt" viewBox="0 0 1089.000000 1089.000000"
 preserveAspectRatio="xMidYMid meet">
<metadata>
Created by potrace 1.11, written by Peter Selinger 2001-2013
</metadata>
<g transform="translate(0.000000,1089.000000) scale(0.100000,-0.100000)"
fill="#000000" stroke="none">
<path d="M8261 10791 c0 -8 -4 -11 -8 -8 -3 4 -13 1 -21 -6 -9 -6 -13 -7 -9
-1 3 6 -1 11 -9 11 -8 0 -13 -6 -10 -13 3 -9 -1 -11 -11 -7 -12 5 -14 3 -8 -8
7 -11 5 -11 -10 1 -15 12 -17 12 -10 1 6 -11 4 -13 -8 -8 -10 3 -17 3 -17 -2
0 -5 -15 -11 -34 -13 -19 -2 -33 -1 -30 3 2 4 -2 9 -8 12 -19 6 -48 -4 -48
-17 0 -6 -5 -4 -10 4 -6 10 -10 11 -10 3 0 -7 -5 -13 -11 -13 -5 0 -7 6 -3 13
6 9 5 9 -8 0 -8 -7 -17 -10 -20 -7 -3 3 -5 -3 -4 -13 0 -12 -7 -19 -21 -21
-13 -2 -23 -8 -23 -13 0 -5 -6 -9 -13 -9 -7 0 -18 -9 -24 -19 -9 -14 -19 -18
-35 -14 -13 3 -20 3 -16 -1 3 -4 -3 -19 -14 -32 -18 -19 -24 -21 -37 -11 -9 8
-12 8 -8 1 4 -7 0 -14 -7 -17 -8 -3 -16 -1 -19 6 -2 6 -6 3 -10 -7 -4 -10 -3
-15 3 -11 6 3 10 1 10 -4 0 -6 -7 -11 -16 -11 -8 0 -13 -4 -9 -9 3 -5 0 -13
-6 -17 -7 -4 -9 -3 -6 3 7 11 -22 28 -31 18 -3 -3 0 -5 6 -5 7 0 12 -5 12 -11
0 -6 -7 -9 -15 -5 -8 3 -19 -2 -24 -12 -8 -14 -12 -15 -23 -3 -11 12 -10 13 2
6 8 -5 12 -4 7 0 -11 12 -67 13 -74 2 -4 -6 -1 -7 7 -2 9 6 11 4 5 -5 -6 -10
-11 -9 -23 6 -13 18 -14 18 -7 -5 5 -18 4 -22 -6 -16 -8 6 -11 4 -7 -7 4 -8 0
-15 -8 -15 -7 0 -10 5 -7 11 4 6 0 5 -9 -1 -8 -7 -18 -9 -23 -5 -4 4 -2 -3 4
-15 9 -19 9 -22 -3 -17 -8 3 -17 0 -22 -7 -5 -8 -3 -10 7 -4 11 7 12 6 2 -7
-7 -8 -9 -19 -5 -23 4 -5 1 -5 -6 -1 -7 4 -10 12 -7 17 4 5 1 9 -4 9 -6 0 -11
-5 -11 -11 0 -7 -10 -9 -25 -7 -14 3 -25 1 -25 -4 0 -5 -10 -7 -22 -4 -13 3
-17 3 -10 0 14 -7 16 -34 2 -34 -5 0 -10 -5 -10 -11 0 -5 6 -7 13 -4 6 3 2 -2
-10 -11 -27 -20 -28 -27 -7 -48 14 -15 14 -16 -1 -16 -10 0 -13 -5 -9 -12 5
-8 2 -9 -11 -4 -15 5 -16 4 -5 -9 7 -8 16 -12 21 -9 5 3 9 0 9 -5 0 -6 -6 -11
-13 -11 -9 0 -12 -11 -9 -36 3 -25 1 -35 -6 -30 -11 7 -9 -25 3 -43 7 -12 -35
-52 -47 -45 -4 3 -8 -3 -8 -13 0 -15 -2 -15 -9 -3 -6 8 -7 19 -4 25 3 5 0 4
-8 -2 -16 -15 -33 -17 -24 -3 3 6 1 10 -4 10 -6 0 -11 -4 -11 -10 0 -5 -5 -10
-11 -10 -5 0 -7 4 -4 10 3 6 -1 7 -9 4 -10 -4 -16 -1 -16 7 -1 9 -4 8 -11 -4
-7 -12 -15 -15 -27 -8 -9 4 -32 7 -49 5 -18 -1 -33 2 -33 7 0 6 -4 8 -10 4 -5
-3 -6 -13 -3 -23 4 -13 2 -13 -10 3 -10 12 -16 15 -17 7 0 -8 -5 -10 -12 -5
-19 11 -39 13 -32 2 3 -5 0 -9 -5 -9 -6 0 -11 5 -11 10 0 6 -5 10 -11 10 -5 0
-7 -6 -3 -12 5 -9 2 -9 -9 1 -14 11 -17 11 -17 0 0 -9 -3 -10 -8 -4 -10 14
-52 15 -52 1 0 -6 -5 -4 -10 4 -5 8 -10 10 -10 3 0 -13 -18 -12 -39 1 -11 7
-13 5 -7 -9 6 -17 5 -18 -11 -4 -20 17 -31 18 -50 6 -8 -5 -13 -3 -13 5 0 9
-3 9 -10 -2 -6 -10 -10 -11 -10 -2 0 6 -5 12 -11 12 -5 0 -8 -4 -4 -9 3 -6 -4
-8 -15 -5 -11 2 -29 6 -40 8 -11 3 -18 1 -15 -5 4 -5 1 -9 -4 -9 -6 0 -11 6
-11 13 0 8 -4 7 -10 -3 -8 -12 -10 -12 -10 -1 0 11 -3 11 -15 1 -12 -10 -15
-10 -15 1 0 11 -2 11 -10 -1 -7 -11 -10 -11 -10 -2 0 10 -5 10 -22 -2 -16 -11
-25 -13 -35 -4 -8 7 -13 7 -13 0 0 -5 -9 -8 -20 -5 -11 3 -17 9 -14 14 3 5 -2
6 -11 3 -14 -6 -14 -8 2 -21 17 -13 16 -13 -4 -4 -29 15 -56 14 -47 -1 4 -7 3
-8 -5 -4 -6 4 -9 12 -6 17 4 5 2 9 -4 9 -5 0 -11 -5 -13 -10 -2 -6 -13 -12
-26 -15 -13 -2 -20 0 -17 6 9 13 -9 11 -23 -3 -9 -9 -12 -9 -12 1 0 11 -3 11
-15 1 -11 -9 -15 -9 -15 -1 0 7 -5 9 -10 6 -6 -4 -8 -11 -5 -16 4 -5 -4 -5
-19 1 -16 6 -26 6 -26 0 0 -5 -7 -6 -17 -3 -12 5 -14 3 -8 -7 5 -9 4 -11 -4
-6 -6 4 -9 12 -6 17 4 5 1 9 -4 9 -6 0 -11 -8 -12 -17 0 -12 -2 -13 -6 -5 -4
10 -8 10 -19 1 -11 -9 -14 -8 -14 2 0 11 -2 11 -10 -1 -8 -12 -10 -12 -10 -1
0 10 -3 11 -13 2 -10 -8 -17 -7 -26 2 -10 9 -11 8 -5 -7 5 -14 4 -17 -5 -11
-8 4 -17 2 -23 -6 -8 -11 -9 -10 -4 4 3 9 1 17 -4 17 -6 0 -10 -5 -10 -12 0
-6 -3 -9 -6 -5 -3 3 -18 1 -32 -4 -18 -7 -28 -6 -34 3 -6 11 -8 11 -8 0 0 -7
-4 -10 -10 -7 -5 3 -10 1 -10 -5 0 -8 -6 -8 -20 0 -14 8 -20 8 -20 0 0 -6 -4
-9 -9 -5 -5 3 -12 1 -16 -5 -4 -7 -13 -6 -27 1 -15 8 -19 8 -14 0 4 -6 1 -11
-8 -11 -8 0 -22 -3 -32 -7 -13 -5 -15 -3 -9 8 7 10 1 9 -17 -3 -26 -17 -28
-17 -38 0 -11 16 -11 16 -6 -2 5 -15 2 -17 -14 -13 -13 3 -20 0 -20 -9 0 -8
-5 -14 -11 -14 -5 0 -8 4 -4 9 3 6 -4 9 -15 8 -11 -1 -20 -6 -20 -12 0 -5 -5
-3 -10 5 -8 12 -10 12 -11 -5 0 -11 -3 -14 -6 -7 -2 6 -9 12 -14 12 -6 0 -7
-6 -3 -12 5 -8 0 -7 -11 2 -10 8 -16 10 -12 3 4 -6 3 -14 -3 -18 -5 -3 -10 -3
-10 2 0 4 -11 9 -26 9 -23 2 -24 1 -7 -12 17 -12 16 -13 -4 -7 -16 3 -23 1
-23 -8 0 -11 -2 -11 -10 1 -6 9 -13 11 -17 5 -12 -15 -53 -18 -53 -4 0 7 -3 9
-6 6 -4 -4 -2 -13 5 -21 9 -11 8 -14 -6 -12 -10 0 -21 8 -25 16 -6 13 -7 12
-7 -1 -1 -23 -31 -33 -32 -11 -1 11 -4 8 -9 -8 -4 -14 -8 -19 -9 -11 -1 11 -4
11 -16 1 -8 -7 -12 -17 -9 -22 4 -6 -6 -2 -20 7 -21 14 -26 15 -24 4 2 -9 -4
-13 -14 -11 -10 2 -18 -3 -19 -10 0 -7 -4 -4 -9 7 -8 18 -9 19 -9 1 -1 -12 -6
-16 -17 -12 -8 3 -12 2 -9 -4 3 -6 2 -10 -4 -10 -5 0 -12 6 -14 13 -4 7 -6 6
-6 -4 -1 -9 -8 -20 -17 -23 -15 -6 -15 -4 -3 10 13 16 12 16 -9 5 -12 -6 -28
-9 -34 -5 -7 4 -8 3 -4 -4 4 -7 2 -12 -4 -12 -6 0 -8 -4 -5 -10 8 -13 -1 -13
-25 0 -15 8 -21 6 -30 -10 -6 -11 -16 -17 -25 -14 -11 5 -14 1 -9 -12 3 -11
-1 -8 -10 6 -11 18 -15 20 -16 9 0 -9 -7 -20 -16 -23 -8 -3 -12 -2 -9 3 3 5 0
13 -6 17 -8 4 -9 3 -5 -4 4 -7 2 -12 -4 -12 -6 0 -8 -4 -5 -10 3 -5 -1 -10 -9
-10 -28 0 -31 -1 -50 -18 -21 -19 -25 -19 -37 0 -7 10 -9 10 -9 -3 0 -11 -8
-15 -26 -13 -19 2 -24 -1 -20 -12 3 -8 2 -12 -3 -9 -5 3 -13 0 -17 -6 -5 -9
-11 -6 -22 7 -13 16 -14 17 -9 2 4 -12 1 -18 -9 -18 -9 0 -12 -5 -8 -12 5 -8
0 -7 -11 2 -11 9 -16 10 -11 3 9 -16 1 -16 -27 -2 -21 12 -21 11 -4 -8 17 -19
16 -20 -13 -18 -16 1 -30 -1 -30 -4 0 -3 -12 -14 -26 -24 -21 -16 -27 -17 -41
-5 -15 11 -16 11 -9 -7 4 -11 4 -16 0 -12 -4 4 -14 1 -22 -6 -11 -8 -13 -8 -9
0 5 7 0 9 -14 6 -16 -5 -18 -8 -7 -15 9 -7 7 -8 -9 -5 -13 3 -26 0 -30 -5 -4
-7 -1 -8 7 -3 9 5 11 4 6 -4 -6 -9 -11 -9 -24 1 -13 11 -14 11 -7 -1 6 -11 4
-13 -10 -7 -15 5 -16 4 -5 -9 11 -13 10 -14 -4 -9 -10 4 -16 1 -16 -7 0 -11
-3 -11 -10 1 -8 13 -10 12 -10 -3 0 -10 -5 -15 -10 -12 -14 9 -42 -14 -33 -28
3 -6 1 -7 -6 -3 -6 4 -9 13 -5 19 3 7 -1 4 -9 -5 -8 -10 -17 -15 -20 -11 -4 3
-9 -2 -13 -11 -3 -9 -10 -16 -16 -16 -5 0 -6 6 -3 13 4 6 -1 3 -9 -7 -9 -11
-23 -21 -31 -23 -8 -2 -21 -4 -29 -6 -8 -2 -21 -9 -30 -16 -9 -7 -16 -10 -16
-6 0 4 -6 2 -13 -4 -8 -6 -18 -7 -22 -3 -5 4 -5 2 -2 -4 4 -6 -1 -20 -9 -30
-9 -10 -13 -13 -9 -6 3 6 1 12 -4 12 -6 0 -11 -7 -11 -15 0 -17 -43 -31 -60
-20 -9 6 -9 2 -2 -12 9 -15 8 -20 -3 -20 -8 0 -12 4 -9 9 3 4 0 8 -5 8 -10 0
-15 -13 -13 -31 1 -4 -8 -5 -18 -2 -11 3 -20 0 -20 -6 0 -5 -6 -8 -14 -5 -8 3
-21 -5 -30 -18 -9 -12 -16 -18 -17 -13 0 6 -4 0 -9 -12 -6 -15 -15 -21 -25
-17 -9 4 -15 0 -15 -9 0 -9 -4 -19 -10 -22 -6 -4 -7 1 -3 11 6 15 4 15 -20 -1
-15 -10 -24 -22 -20 -29 5 -7 2 -7 -8 1 -12 10 -19 8 -35 -10 -10 -12 -22 -29
-26 -37 -5 -11 -7 -11 -7 -2 -1 7 -6 10 -11 7 -6 -4 -7 -12 -3 -18 4 -7 -2 -5
-12 3 -15 12 -17 12 -10 1 6 -11 4 -13 -9 -8 -9 4 -15 3 -12 -1 6 -10 -4 -24
-29 -39 -11 -6 -19 -16 -17 -23 1 -6 -2 -9 -8 -5 -6 3 -7 11 -4 17 5 7 2 8 -5
4 -7 -5 -10 -15 -6 -23 4 -13 3 -14 -9 -4 -11 9 -16 9 -22 0 -5 -8 -3 -9 7 -4
11 7 12 6 2 -7 -7 -8 -10 -17 -7 -21 3 -3 -3 -3 -14 -1 -12 4 -22 0 -25 -10
-4 -9 -14 -13 -27 -11 -17 3 -19 1 -10 -15 8 -15 6 -17 -9 -13 -12 3 -25 -6
-39 -29 -12 -18 -22 -28 -22 -22 0 5 6 16 13 24 6 8 3 7 -9 -3 -11 -9 -25 -14
-29 -10 -5 5 -3 -1 5 -11 12 -16 12 -18 1 -11 -9 5 -19 1 -30 -14 -9 -12 -26
-23 -38 -24 -12 0 -19 -5 -17 -9 3 -5 10 -5 16 -2 7 4 8 2 4 -4 -4 -6 -13 -9
-22 -5 -9 3 -14 0 -12 -8 2 -8 -3 -13 -11 -11 -9 2 -11 -3 -7 -14 6 -15 4 -15
-11 -3 -9 8 -14 9 -10 2 4 -6 0 -16 -8 -21 -9 -4 -17 -18 -18 -29 0 -12 -4
-20 -7 -18 -8 5 -30 -22 -23 -29 4 -3 1 -6 -5 -6 -7 0 -12 6 -12 13 0 8 -4 7
-10 -3 -6 -10 -10 -11 -10 -2 0 6 -5 12 -11 12 -5 0 -7 -5 -3 -12 5 -8 2 -9
-10 -5 -9 4 -14 3 -11 -2 3 -5 -6 -22 -20 -37 -14 -15 -25 -22 -25 -15 0 6 -5
11 -11 11 -5 0 -7 -4 -4 -10 3 -6 -6 -11 -22 -12 -47 -2 -51 -3 -60 -12 -4 -5
-3 -6 5 -2 6 4 12 2 12 -3 0 -6 -7 -11 -16 -11 -8 0 -12 -5 -9 -10 4 -6 12 -8
18 -4 7 3 1 -4 -12 -15 -17 -16 -27 -18 -37 -11 -10 9 -11 6 -7 -12 5 -23 5
-23 -11 -3 -10 11 -14 14 -10 6 5 -11 3 -13 -11 -7 -14 5 -15 4 -7 -7 8 -10 6
-13 -10 -14 -12 -1 -26 -7 -32 -13 -8 -8 -6 -9 8 -4 13 5 17 4 12 -4 -4 -7
-15 -12 -24 -12 -15 0 -15 -2 -2 -10 12 -7 12 -10 1 -10 -8 0 -11 -6 -7 -16 4
-10 2 -13 -6 -8 -7 5 -9 2 -5 -8 3 -9 -3 -24 -14 -34 -10 -9 -19 -13 -19 -7 0
5 -7 10 -15 10 -11 0 -12 -4 -4 -14 9 -10 7 -13 -6 -13 -14 0 -16 -7 -13 -34
2 -19 0 -32 -4 -30 -8 5 -12 -10 -9 -35 2 -7 -2 -10 -8 -6 -7 3 -8 0 -5 -9 7
-19 -7 -21 -25 -3 -10 10 -11 9 -6 -4 4 -10 1 -20 -6 -25 -8 -4 -10 -3 -5 4 5
8 2 10 -8 6 -9 -3 -14 -9 -11 -14 2 -4 -7 -6 -21 -4 -22 2 -23 0 -12 -14 8
-10 9 -13 1 -9 -6 4 -14 3 -18 -3 -3 -5 -2 -10 4 -10 6 0 8 -7 5 -15 -4 -8
-11 -12 -18 -8 -6 3 -6 1 1 -8 18 -19 16 -29 -5 -23 -10 4 -13 3 -6 -3 12 -9
28 -44 25 -56 -1 -5 3 -6 9 -2 5 3 10 1 10 -5 0 -6 4 -9 8 -6 5 3 9 0 9 -7 0
-7 4 -20 8 -29 4 -11 3 -18 -5 -18 -6 0 -9 4 -6 8 3 5 -1 9 -9 9 -12 0 -12 -4
2 -19 18 -20 27 -52 12 -42 -5 3 -9 0 -9 -5 0 -6 5 -11 11 -11 8 0 8 -4 -1
-15 -10 -12 -8 -14 7 -10 12 2 20 -2 20 -10 0 -7 -5 -11 -12 -9 -6 3 -11 -4
-11 -15 0 -16 3 -18 15 -8 12 10 13 8 9 -11 -5 -18 -4 -21 6 -13 9 8 17 1 29
-25 10 -19 14 -40 11 -46 -4 -7 -2 -8 4 -4 7 4 12 2 12 -4 0 -6 5 -8 12 -4 8
5 9 2 5 -9 -4 -10 -2 -16 5 -14 6 1 22 -13 35 -32 20 -29 23 -31 23 -12 0 11
5 21 11 21 5 0 7 -4 4 -10 -3 -5 1 -10 10 -10 9 0 13 -5 9 -11 -4 -8 0 -8 15
0 17 9 20 9 15 -3 -6 -17 11 -29 42 -31 15 0 20 3 14 10 -6 7 -2 11 10 11 10
0 17 -3 14 -7 -2 -4 3 -9 11 -12 9 -4 12 -1 9 7 -3 7 2 13 10 13 8 0 13 -4 10
-9 -5 -8 10 -12 35 -9 7 2 10 -2 7 -7 -3 -5 1 -15 9 -22 13 -11 14 -10 9 6 -4
10 -4 16 1 12 4 -4 14 -3 22 4 11 9 13 8 11 -2 -2 -7 3 -15 11 -18 10 -3 11 0
5 9 -6 10 -1 9 16 -3 14 -9 24 -21 23 -27 -2 -6 0 -10 5 -10 20 3 29 -3 27
-21 -1 -11 -4 -22 -7 -26 -4 -3 -4 -17 -2 -31 4 -20 2 -24 -8 -17 -8 5 -5 1 5
-8 19 -17 19 -18 1 -18 -16 -1 -15 -3 6 -15 22 -13 23 -14 5 -15 -19 -1 -19
-1 -2 -11 18 -11 14 -29 -6 -29 -7 0 -6 4 3 10 9 6 10 10 3 10 -22 0 -23 -17
-2 -38 18 -20 18 -22 2 -22 -15 0 -16 -2 -3 -10 13 -9 13 -10 0 -10 -13 0 -13
-1 0 -10 12 -8 12 -10 -5 -11 l-20 0 20 -9 c13 -6 15 -9 5 -9 -13 -1 -13 -3
-1 -10 11 -7 10 -10 -5 -14 -18 -4 -18 -5 0 -6 20 -1 20 -1 0 -17 -10 -8 -13
-13 -7 -9 9 4 12 -1 10 -17 -1 -13 -9 -26 -17 -30 -12 -5 -12 -7 3 -7 9 -1 17
-6 17 -12 0 -5 -6 -7 -12 -3 -10 5 -10 4 -1 -6 10 -10 8 -19 -8 -41 -12 -17
-15 -30 -9 -34 5 -3 10 -13 10 -21 0 -9 -5 -12 -11 -8 -8 5 -8 1 0 -14 7 -13
7 -23 1 -27 -5 -3 -6 -13 -3 -22 4 -11 3 -14 -5 -9 -9 5 -9 1 -2 -18 8 -22 7
-26 -8 -26 -15 -1 -15 -2 2 -11 15 -9 16 -13 5 -20 -10 -6 -11 -9 -1 -9 6 0
12 -5 12 -11 0 -5 -4 -8 -9 -4 -5 3 -12 1 -16 -5 -3 -5 -1 -10 5 -10 8 0 8 -6
0 -20 -8 -15 -8 -20 1 -20 8 0 8 -4 -1 -15 -10 -12 -10 -15 0 -15 10 0 10 -3
0 -15 -12 -14 -7 -19 13 -16 5 1 6 -3 2 -9 -3 -6 -11 -8 -16 -5 -5 4 -9 1 -9
-4 0 -6 5 -11 11 -11 8 0 8 -5 -1 -15 -9 -10 -9 -15 -1 -15 6 0 11 -5 11 -11
0 -5 -4 -8 -8 -5 -5 3 -9 -2 -9 -10 0 -8 5 -13 11 -11 6 3 11 -7 11 -23 0 -16
-4 -26 -10 -23 -5 3 -4 0 2 -7 10 -11 9 -18 -5 -33 -17 -20 -17 -20 8 -4 24
15 25 15 25 -8 0 -12 -3 -21 -7 -19 -4 2 -9 0 -13 -6 -3 -5 2 -10 11 -10 10 0
14 -3 11 -7 -4 -3 -1 -13 6 -21 10 -13 9 -14 -3 -7 -13 8 -13 7 0 -10 8 -10
14 -26 12 -37 -2 -10 3 -18 10 -18 9 0 9 -3 -2 -10 -10 -6 -11 -10 -2 -10 6 0
12 -9 12 -20 0 -11 5 -20 11 -20 8 0 7 -6 -2 -17 -10 -11 -10 -14 -1 -9 7 4
12 1 12 -9 0 -10 5 -14 13 -9 9 6 10 4 0 -7 -17 -17 -16 -29 1 -29 9 0 12 -7
9 -20 -4 -15 0 -20 13 -21 18 0 18 -1 -1 -9 -14 -6 -16 -9 -5 -10 8 -2 18 -2
23 -1 4 0 6 -2 6 -6 -5 -29 4 -62 20 -80 15 -16 17 -23 8 -33 -9 -10 -9 -11 1
-6 6 4 12 2 12 -4 0 -6 5 -8 13 -4 8 5 8 2 -2 -9 -12 -15 -11 -17 2 -17 9 0
19 -5 23 -12 5 -7 2 -9 -8 -6 -9 4 -15 0 -15 -8 0 -8 3 -12 5 -9 3 3 11 0 19
-6 11 -10 10 -14 -4 -26 -17 -13 -16 -14 7 -9 14 3 19 3 12 0 -6 -3 -10 -10
-6 -15 3 -5 0 -8 -8 -7 -7 2 -12 -3 -10 -10 1 -8 -2 -11 -8 -7 -5 3 -10 1 -10
-5 0 -6 -5 -8 -12 -4 -7 5 -9 2 -6 -8 4 -8 1 -15 -7 -15 -8 0 -11 7 -7 16 3 9
3 14 1 11 -34 -40 -42 -52 -30 -45 10 6 12 4 7 -4 -5 -7 -14 -10 -22 -7 -9 3
-11 0 -7 -12 6 -15 4 -15 -9 -4 -14 11 -16 10 -13 -13 2 -18 -1 -23 -8 -16 -7
7 -16 4 -29 -11 -14 -17 -16 -24 -6 -37 10 -13 10 -14 -2 -3 -20 17 -33 15
-26 -4 6 -15 4 -15 -11 -3 -15 13 -16 12 -10 -9 3 -13 3 -21 0 -18 -10 9 -33
-15 -26 -27 4 -6 1 -7 -6 -3 -9 6 -9 12 3 25 19 20 20 31 5 31 -5 0 -8 -4 -5
-9 3 -4 -3 -16 -14 -26 -11 -10 -17 -22 -14 -26 3 -5 -1 -6 -9 -3 -8 3 -18 0
-23 -7 -4 -7 -3 -10 3 -6 5 3 10 0 10 -8 0 -8 -4 -12 -9 -9 -5 4 -16 -2 -24
-12 -9 -11 -12 -13 -8 -5 5 9 3 12 -4 7 -7 -4 -12 -15 -12 -24 0 -15 -2 -15
-10 -2 -8 13 -10 13 -10 -1 0 -9 -7 -20 -16 -23 -9 -3 -12 -11 -8 -18 5 -8 2
-9 -10 -5 -14 6 -17 3 -12 -9 5 -13 4 -14 -7 -5 -11 8 -18 6 -31 -8 -10 -11
-15 -25 -10 -32 4 -7 3 -10 -3 -6 -10 6 -28 -19 -25 -33 0 -3 -11 -7 -24 -8
-17 -1 -23 2 -18 10 4 6 3 8 -4 4 -6 -3 -9 -15 -7 -26 3 -13 -1 -17 -11 -13
-8 3 -14 -1 -14 -11 0 -18 -28 -35 -53 -31 -9 2 -15 -1 -11 -6 3 -5 9 -7 13
-5 4 3 8 -1 8 -8 0 -8 -6 -12 -14 -9 -7 3 -13 0 -13 -7 0 -6 -5 -8 -12 -4 -7
5 -9 2 -5 -9 4 -12 2 -14 -10 -10 -11 4 -14 2 -9 -5 5 -8 -1 -12 -16 -12 -18
0 -20 -2 -8 -10 13 -8 12 -10 -4 -10 -11 0 -16 -3 -13 -7 4 -3 0 -15 -9 -25
-14 -15 -20 -16 -32 -5 -13 9 -14 9 -8 0 4 -8 2 -13 -4 -13 -6 0 -8 -5 -4 -12
5 -7 2 -9 -8 -5 -22 8 -30 -3 -15 -21 10 -13 9 -15 -7 -9 -14 6 -17 4 -12 -9
6 -15 4 -15 -11 -3 -10 7 -14 9 -10 4 4 -5 -3 -15 -15 -22 l-23 -14 25 5 c24
5 23 5 -3 -7 -15 -7 -24 -16 -21 -20 4 -4 2 -13 -4 -20 -7 -8 -9 -16 -6 -20 3
-3 -4 -3 -15 0 -15 4 -21 1 -19 -8 2 -8 -3 -13 -10 -11 -6 1 -12 -3 -12 -9 0
-5 -5 -7 -12 -3 -6 4 -8 3 -5 -4 9 -13 -3 -47 -12 -35 -3 5 -14 1 -24 -10 -19
-19 -18 -19 5 -12 l23 7 -23 -17 c-12 -9 -20 -20 -17 -24 2 -5 -8 -6 -23 -5
-15 2 -21 1 -14 -2 18 -9 15 -21 -8 -27 -11 -3 -19 -11 -18 -19 2 -7 -2 -12
-9 -11 -8 2 -10 -4 -6 -15 6 -14 4 -15 -8 -5 -12 10 -15 8 -15 -7 0 -10 5 -16
11 -13 5 3 1 -3 -10 -14 -11 -11 -22 -19 -24 -17 -8 7 -43 -48 -45 -71 -1 -27
-11 -33 -20 -12 -3 6 -3 0 -1 -16 2 -15 0 -25 -6 -22 -5 4 -10 1 -10 -4 -1 -6
-2 -15 -3 -20 0 -6 -7 -16 -15 -23 -12 -11 -13 -10 -7 7 6 16 5 17 -5 8 -9 -9
-9 -16 -1 -26 9 -11 8 -18 -6 -31 -10 -9 -21 -14 -23 -11 -3 2 -4 -9 -3 -26 2
-24 -1 -28 -11 -19 -11 9 -12 7 -8 -11 5 -17 3 -20 -8 -14 -12 7 -12 6 -1 -7
11 -14 10 -16 -10 -12 -19 5 -20 4 -6 -5 13 -9 14 -15 5 -36 -7 -14 -16 -25
-20 -25 -5 0 -5 5 -1 12 4 7 3 8 -5 4 -7 -5 -9 -12 -3 -19 13 -18 9 -40 -8
-44 -13 -4 -13 -3 0 7 12 9 12 11 1 8 -8 -2 -15 -12 -17 -21 -1 -9 1 -15 5
-12 4 2 8 -2 8 -9 0 -9 -7 -12 -16 -8 -14 5 -14 4 -1 -13 8 -10 10 -16 3 -12
-6 4 -14 3 -18 -3 -3 -5 -1 -10 4 -10 6 0 11 -5 11 -11 0 -5 -4 -8 -9 -5 -5 3
-14 -1 -20 -8 -8 -10 -9 -16 -1 -21 5 -3 10 -15 10 -26 0 -11 -4 -17 -10 -14
-5 3 -10 1 -10 -4 0 -6 4 -11 9 -11 12 0 8 -30 -5 -38 -6 -4 -10 -23 -9 -42 0
-19 -4 -41 -9 -47 -5 -9 -4 -13 4 -13 10 0 10 -3 0 -15 -9 -10 -9 -15 -1 -15
13 0 10 -22 -4 -33 -7 -5 -7 -10 0 -15 19 -13 17 -35 -2 -28 -17 6 -17 5 0 -8
18 -14 24 -31 6 -20 -6 3 -3 -8 6 -26 9 -18 12 -29 6 -26 -14 9 -14 0 0 -25 5
-11 15 -16 21 -13 7 4 8 3 4 -5 -4 -6 -12 -9 -17 -6 -5 4 -9 2 -9 -4 0 -5 6
-12 13 -14 9 -4 9 -6 0 -6 -19 -1 -16 -21 2 -21 13 0 14 -4 4 -22 -12 -22 -11
-22 6 -8 17 14 18 14 8 -5 -9 -15 -8 -22 5 -33 10 -7 11 -11 5 -7 -9 4 -11 1
-7 -9 3 -9 11 -13 17 -9 6 4 7 1 1 -8 -15 -24 -13 -38 5 -34 12 2 17 -4 18
-18 1 -47 3 -58 12 -53 5 3 12 -1 15 -10 4 -9 2 -13 -5 -8 -7 4 -7 -1 1 -15
10 -19 14 -20 28 -10 14 11 15 11 5 -1 -18 -19 -16 -30 5 -31 14 0 14 -2 -3
-9 -18 -8 -18 -9 5 -9 20 -1 22 -3 10 -11 -11 -7 -11 -10 -2 -10 7 0 10 -4 7
-10 -3 -5 1 -10 9 -10 9 0 16 -9 16 -20 0 -11 5 -20 11 -20 5 0 7 5 3 12 -4 6
-3 8 4 5 11 -8 11 -25 -1 -44 -5 -9 -3 -11 6 -7 8 3 18 0 23 -7 4 -7 3 -10 -4
-6 -6 5 -8 -1 -4 -15 4 -16 2 -19 -8 -13 -9 5 -11 4 -6 -4 4 -6 0 -14 -8 -17
-13 -5 -12 -9 7 -26 12 -11 16 -16 8 -12 -9 4 -12 2 -9 -7 3 -8 11 -13 17 -11
7 1 10 -2 6 -8 -3 -6 -11 -8 -16 -4 -13 7 -7 -19 6 -28 6 -5 5 -8 -4 -8 -11 0
-11 -3 0 -17 10 -11 10 -14 1 -9 -6 4 -12 2 -12 -3 0 -6 5 -11 10 -11 6 0 10
-5 10 -11 0 -5 -4 -8 -9 -5 -11 7 -9 -13 2 -31 5 -8 3 -13 -5 -13 -8 -1 -5 -7
7 -17 16 -13 17 -15 3 -10 -10 4 -18 2 -18 -3 0 -6 6 -10 13 -10 8 0 7 -4 -3
-10 -10 -6 -11 -10 -2 -10 6 0 12 -5 12 -11 0 -5 -4 -8 -9 -4 -6 3 -8 -4 -5
-15 2 -11 6 -29 8 -40 3 -11 1 -18 -5 -15 -5 4 -9 1 -9 -4 0 -6 6 -11 13 -11
8 0 7 -4 -3 -10 -12 -8 -12 -10 -1 -10 11 0 11 -3 0 -17 -12 -15 -12 -16 1 -8
13 8 13 7 1 -8 -10 -13 -10 -17 -1 -17 9 0 9 -4 -1 -17 -8 -9 -9 -14 -2 -10
13 8 12 -18 -2 -30 -4 -4 -5 -2 0 6 6 10 4 12 -4 7 -9 -6 -8 -13 5 -27 15 -17
15 -19 1 -25 -13 -5 -14 -10 -6 -25 8 -15 6 -19 -8 -20 -12 -1 -10 -3 7 -9 14
-4 18 -8 9 -9 -12 -1 -15 -8 -11 -26 2 -14 9 -25 15 -25 6 0 7 -3 4 -6 -4 -4
-12 -2 -20 4 -10 8 -13 6 -13 -9 0 -10 3 -19 6 -19 9 0 5 -38 -5 -47 -4 -5 -5
-3 -1 4 3 6 2 14 -3 17 -13 9 -7 -19 8 -38 12 -14 11 -16 -5 -9 -16 6 -17 4
-7 -8 10 -12 10 -19 0 -35 -12 -17 -14 -35 -7 -49 6 -13 4 -63 -2 -58 -5 2 -8
-5 -8 -16 0 -12 5 -21 10 -21 6 0 5 -6 -2 -14 -7 -8 -15 -13 -18 -11 -3 2 -5
-32 -5 -75 0 -67 -2 -77 -14 -67 -11 9 -13 9 -8 0 4 -6 1 -14 -5 -16 -8 -4 -7
-6 4 -6 22 -1 32 -17 17 -27 -8 -5 -9 -3 -4 7 5 8 4 11 -1 6 -12 -12 -12 -30
1 -39 6 -5 6 -8 -2 -8 -7 0 -13 -5 -13 -11 0 -5 6 -7 13 -3 6 4 4 -1 -5 -12
-11 -12 -15 -28 -11 -42 3 -12 1 -22 -5 -22 -6 0 -8 -9 -5 -20 3 -13 0 -20 -8
-20 -11 0 -11 -2 1 -10 8 -5 12 -10 8 -10 -4 0 -3 -12 2 -26 7 -18 7 -23 -1
-18 -8 5 -10 -1 -7 -20 3 -15 1 -26 -6 -27 -6 0 -2 -4 9 -9 17 -7 17 -9 3 -9
-15 -1 -16 -5 -8 -27 7 -18 7 -23 -1 -18 -8 4 -9 -1 -4 -16 4 -13 3 -20 -2
-17 -6 4 -9 -6 -8 -21 1 -15 7 -26 14 -24 7 1 10 -2 6 -7 -3 -6 -13 -8 -23 -5
-11 4 -13 3 -5 -3 12 -9 13 -30 0 -50 -4 -6 -2 -15 4 -19 7 -4 9 -3 5 4 -3 6
-2 13 2 16 10 6 9 -40 -1 -50 -4 -4 -1 -14 6 -22 10 -13 9 -14 -3 -7 -12 6
-13 5 -3 -6 14 -15 18 -33 5 -25 -5 3 -8 -12 -7 -32 1 -21 6 -36 12 -35 6 1
10 -5 8 -15 -2 -9 -4 -29 -4 -44 -1 -21 -5 -26 -21 -23 -13 3 -18 0 -14 -7 5
-7 0 -9 -14 -6 -15 4 -19 2 -15 -8 4 -10 -3 -14 -21 -14 -14 0 -26 -5 -26 -10
0 -6 -6 -9 -12 -8 -7 2 -12 -3 -10 -11 3 -12 0 -12 -12 -2 -12 10 -16 9 -25
-6 -10 -17 -10 -17 -11 2 -1 18 -1 19 -11 2 -5 -9 -7 -23 -3 -30 6 -9 5 -9 -7
0 -14 11 -16 8 -15 -26 1 -32 -2 -38 -16 -36 -14 3 -16 0 -7 -23 l10 -26 -23
19 c-13 11 -17 13 -11 5 14 -15 18 -34 5 -26 -4 2 -7 -15 -6 -39 1 -38 -1 -42
-20 -38 -15 4 -17 2 -7 -5 9 -7 10 -12 2 -16 -17 -11 -13 -26 7 -26 14 0 15
-2 2 -10 -13 -8 -12 -10 3 -10 9 0 17 -5 17 -11 0 -5 -4 -8 -8 -5 -4 2 -8 -4
-8 -15 0 -10 4 -19 9 -19 5 0 4 -7 -3 -16 -11 -13 -10 -16 9 -21 16 -4 21 -11
18 -25 -3 -11 0 -21 9 -25 20 -8 17 -23 -4 -16 -13 4 -13 2 3 -10 11 -8 23
-14 26 -13 4 0 16 -7 26 -17 11 -9 23 -14 28 -10 4 5 5 2 1 -4 -9 -16 17 -56
30 -46 5 4 4 1 -3 -6 -8 -10 -9 -20 -2 -33 5 -10 7 -22 4 -27 -3 -5 4 -7 15
-4 12 3 20 0 20 -7 0 -9 4 -9 17 1 11 10 14 10 9 2 -4 -8 -1 -13 8 -13 9 0 16
-4 16 -9 0 -5 7 -12 16 -15 14 -5 15 -4 5 7 -9 12 -6 14 19 11 21 -3 29 0 24
8 -4 7 -3 8 5 4 6 -4 9 -12 5 -17 -3 -6 0 -10 7 -8 29 3 37 -2 33 -24 -2 -12
-2 -16 2 -9 3 6 10 12 15 12 6 0 7 -6 3 -12 -5 -9 -2 -9 9 1 9 7 18 11 18 7 1
-3 2 -9 3 -13 3 -18 18 -33 27 -27 5 3 17 0 26 -8 12 -9 15 -9 9 0 -4 6 -2 12
3 12 6 0 11 -5 11 -11 0 -5 10 -9 22 -7 16 2 22 -2 20 -12 -1 -9 6 -6 18 9 18
21 25 20 20 -4 -1 -5 9 -1 21 10 12 11 19 14 15 8 -4 -8 -1 -13 8 -13 9 0 16
-6 16 -12 0 -9 4 -8 10 2 8 12 10 12 10 1 0 -11 3 -11 17 0 11 10 14 10 9 2
-4 -8 -1 -13 8 -13 9 0 16 5 16 12 0 6 3 8 6 5 4 -4 1 -13 -6 -22 -19 -23 -3
-18 21 8 l21 22 -7 -24 c-7 -24 -7 -24 19 3 14 16 24 31 22 35 -4 6 18 6 72 2
7 -1 11 -5 8 -10 -7 -11 12 -26 41 -33 16 -4 20 -2 16 8 -6 17 9 18 26 2 11
-10 13 -10 7 0 -4 6 -2 12 4 12 6 0 8 5 5 11 -4 6 2 5 13 -2 12 -7 20 -15 20
-18 0 -4 0 -13 1 -21 1 -13 2 -13 11 0 5 8 10 10 10 4 0 -5 -5 -15 -12 -22 -9
-9 -9 -12 1 -12 7 0 9 -5 6 -10 -4 -6 -11 -7 -17 -4 -7 5 -7 1 -1 -11 12 -21
6 -55 -10 -55 -6 0 -7 -3 -4 -6 4 -4 13 -1 22 6 13 11 14 10 9 -4 -3 -9 -10
-16 -15 -16 -4 0 -6 -7 -3 -15 4 -9 0 -15 -7 -16 -8 0 -5 -4 6 -9 11 -5 14 -9
6 -9 -11 -1 -11 -4 -1 -16 8 -10 9 -15 2 -15 -6 0 -9 -7 -6 -15 4 -8 9 -13 13
-10 4 2 8 -2 8 -10 0 -8 -5 -11 -10 -8 -6 4 -3 -4 5 -16 9 -12 13 -31 10 -43
-2 -11 1 -23 7 -27 7 -4 13 -17 14 -29 1 -16 4 -18 14 -10 11 8 12 7 7 -7 -5
-12 -4 -16 3 -12 6 4 11 -4 11 -19 0 -27 19 -47 36 -37 5 4 7 -1 3 -10 -7 -19
10 -33 35 -29 9 2 19 -2 23 -8 3 -5 17 -10 31 -10 14 0 22 -4 19 -10 -3 -5 -1
-10 4 -10 6 0 11 6 11 13 0 9 3 8 9 -2 7 -11 10 -11 15 0 3 8 4 3 2 -11 -5
-23 -4 -24 9 -7 10 15 18 16 33 8 11 -6 22 -7 26 -3 4 3 11 0 16 -8 8 -13 10
-12 10 2 0 9 5 20 12 24 6 4 8 3 5 -3 -4 -6 0 -14 9 -17 9 -3 12 -2 9 4 -4 7
3 9 18 6 14 -2 28 -2 32 2 9 10 55 10 49 0 -3 -4 -10 -5 -16 -2 -7 4 -8 2 -4
-5 6 -9 11 -9 22 0 8 6 14 8 14 4 0 -4 7 -2 15 5 12 10 15 9 15 -6 0 -11 3
-15 8 -8 4 5 24 10 44 9 20 -1 35 2 32 7 -8 13 10 9 25 -5 11 -10 12 -9 6 3
-6 12 -5 13 5 3 9 -8 19 -9 31 -2 13 7 20 5 28 -8 7 -12 11 -13 11 -5 0 8 6
12 13 9 6 -2 20 0 30 5 12 6 19 5 23 -7 3 -8 10 -15 16 -15 5 0 6 4 3 10 -3 5
-1 10 5 10 6 0 8 5 4 12 -4 7 -3 8 5 4 6 -4 8 -13 4 -19 -5 -9 -3 -9 8 -1 8 5
25 10 39 9 14 0 28 4 32 10 5 6 8 2 8 -8 0 -11 5 -17 13 -14 6 2 11 10 9 17
-2 10 0 11 11 2 8 -7 17 -9 20 -5 4 3 7 0 7 -8 0 -11 2 -11 10 1 9 13 10 13
10 0 0 -13 1 -13 10 0 9 13 10 13 10 0 0 -13 1 -13 10 0 9 13 10 13 10 0 0
-13 1 -13 10 0 7 11 10 11 10 2 0 -7 5 -10 10 -7 6 4 7 12 3 18 -4 7 6 4 21
-7 16 -10 25 -13 22 -7 -4 6 -4 11 1 12 50 5 66 3 73 -11 8 -13 9 -13 10 2 0
9 6 20 13 24 6 4 9 4 5 -1 -7 -8 19 -34 35 -35 4 0 12 10 17 23 6 14 9 17 9 6
1 -12 8 -15 27 -11 21 4 25 2 20 -9 -5 -10 -4 -10 6 1 17 19 86 19 99 -1 7
-12 9 -11 9 3 0 9 5 20 12 24 6 4 8 3 5 -2 -3 -6 3 -16 15 -23 11 -7 17 -8 13
-2 -3 6 -1 11 5 11 6 0 8 5 4 12 -4 7 -3 8 5 4 6 -4 9 -11 7 -15 -3 -3 4 -7
15 -7 10 0 19 7 19 16 0 12 2 13 9 1 13 -20 91 -21 92 -1 0 10 3 8 9 -5 5 -11
9 -15 9 -10 1 15 82 10 92 -6 7 -11 9 -11 9 3 0 9 5 20 12 24 6 4 8 3 5 -2 -3
-6 3 -16 15 -23 11 -7 17 -8 14 -2 -4 5 -2 12 4 16 5 3 10 0 11 -7 0 -7 4 -4
9 7 6 14 9 15 9 5 1 -9 10 -16 21 -16 13 0 19 5 15 14 -3 8 0 10 8 5 22 -14
36 -12 30 5 -4 10 -2 13 5 8 6 -3 13 -2 17 4 3 5 2 10 -3 10 -6 0 -13 7 -16
16 -5 14 -4 15 8 5 12 -10 14 -9 12 6 -2 10 2 21 8 25 7 5 4 8 -8 8 -15 0 -16
3 -6 15 7 8 9 15 5 15 -4 0 -2 6 4 14 9 11 9 16 0 22 -7 4 -9 3 -5 -4 3 -6 2
-13 -2 -16 -10 -6 -9 40 1 50 4 4 1 14 -6 22 -10 13 -9 14 3 7 12 -6 13 -5 3
6 -14 14 -18 33 -5 25 10 -6 9 35 -1 52 -5 7 -3 12 5 12 8 0 9 3 3 8 -12 9
-16 44 -4 36 5 -3 9 -1 9 5 0 5 -5 13 -11 17 -8 4 -7 9 2 15 8 5 9 9 4 9 -6 0
-10 14 -10 30 -1 17 3 30 9 30 5 0 6 3 3 7 -4 3 -2 12 5 20 9 11 7 12 -8 7
-16 -5 -15 -3 4 13 16 14 20 21 11 30 -8 8 -7 13 2 18 8 6 10 4 4 -5 -5 -9 -4
-11 4 -6 9 6 9 11 -1 24 -11 14 -10 15 12 9 22 -5 23 -5 8 7 -22 16 -23 23 -3
23 8 0 15 -4 15 -9 0 -5 9 -4 19 2 28 15 35 12 20 -7 -12 -14 -12 -16 0 -9 18
11 71 16 71 6 0 -4 7 -11 16 -14 15 -6 15 -4 3 11 -12 16 -12 17 2 6 9 -7 19
-10 23 -6 4 4 4 -1 0 -12 -6 -15 -4 -17 10 -12 9 4 15 3 13 -1 -3 -4 1 -12 8
-19 11 -10 15 -10 18 0 4 7 6 6 6 -4 1 -9 8 -16 16 -16 8 0 12 4 9 8 -2 4 0
10 6 14 5 3 10 -1 10 -9 0 -8 5 -18 12 -22 6 -4 8 -3 5 3 -4 6 2 13 14 16 13
3 22 0 26 -10 5 -12 7 -12 14 -1 7 11 9 11 9 -1 0 -11 3 -11 15 -1 8 6 19 9
25 5 5 -3 10 -1 10 5 0 8 6 7 21 -1 20 -10 21 -9 16 10 -3 12 -1 19 4 15 5 -3
9 -14 9 -26 0 -18 2 -19 17 -7 11 10 14 10 9 1 -4 -6 -2 -12 3 -12 6 0 11 5
11 11 0 6 5 7 13 2 16 -10 57 -11 51 -1 -3 4 2 8 11 8 12 0 15 5 11 16 -5 14
-4 15 8 5 10 -8 16 -9 21 -1 3 5 12 10 18 9 9 0 8 -2 -1 -6 -6 -2 -9 -9 -6
-14 3 -6 11 -3 19 7 12 18 50 30 39 13 -3 -5 5 -9 17 -9 17 0 19 -3 10 -14 -8
-10 -9 -16 -1 -21 5 -3 10 -17 10 -30 0 -13 6 -26 13 -28 7 -3 6 -6 -5 -6 -9
-1 -20 -6 -24 -13 -4 -6 -3 -8 3 -5 6 4 16 0 23 -8 10 -12 8 -16 -11 -23 l-23
-9 25 -7 c23 -6 24 -7 5 -21 -11 -8 -14 -15 -8 -15 10 0 10 -5 2 -20 -8 -15
-6 -23 12 -40 15 -14 17 -19 7 -15 -10 4 -20 1 -24 -5 -3 -6 -3 -10 2 -9 20 3
27 -2 13 -11 -13 -9 -13 -10 0 -10 13 0 13 -1 0 -10 -13 -9 -13 -10 0 -10 13
0 13 -1 0 -10 -10 -6 -11 -10 -2 -10 6 0 12 -5 12 -11 0 -5 -4 -7 -10 -4 -5 3
-10 1 -10 -4 0 -6 8 -11 18 -11 14 0 15 -2 2 -10 -8 -5 -10 -10 -4 -10 13 0
13 -42 -1 -52 -6 -4 -2 -8 9 -8 12 0 16 -5 12 -15 -7 -20 4 -46 17 -38 7 4 8
0 3 -12 -6 -16 -4 -16 10 -4 16 13 16 12 5 -8 -8 -16 -8 -23 -1 -23 6 0 8 -5
5 -10 -4 -6 -3 -10 2 -9 19 3 34 -2 28 -10 -3 -5 0 -13 6 -17 7 -4 9 -3 6 3
-4 6 2 13 13 16 11 3 23 1 26 -4 3 -5 16 -9 29 -9 13 0 26 -6 28 -12 3 -7 6
-2 7 12 0 22 2 23 11 8 6 -11 16 -15 26 -11 12 5 14 3 8 -7 -6 -10 -4 -11 6
-4 21 13 39 14 39 1 0 -7 5 -5 10 3 9 13 10 13 10 0 0 -13 1 -13 10 0 9 13 10
13 10 0 0 -13 1 -13 10 0 7 12 10 12 10 1 0 -7 6 -11 15 -7 8 3 15 1 15 -4 0
-6 5 -10 10 -10 6 0 10 8 10 18 0 14 2 15 10 2 6 -9 21 -14 40 -12 16 2 30 -1
30 -6 0 -6 7 -13 16 -16 13 -5 14 -3 6 6 -8 10 -4 13 14 14 13 1 24 -3 24 -8
0 -6 8 -4 17 3 15 12 16 12 10 -3 -3 -10 -1 -20 5 -24 6 -4 8 -3 5 2 -3 6 3
15 13 22 14 9 21 9 26 0 4 -6 3 -8 -3 -5 -5 3 -10 0 -10 -8 0 -11 4 -12 13 -4
7 6 19 7 26 3 16 -10 79 -14 73 -4 -2 4 2 7 10 7 8 0 12 -3 10 -7 -6 -9 27 -6
44 5 10 6 12 4 6 -5 -6 -10 0 -12 24 -8 23 3 31 1 32 -11 1 -9 5 -5 9 9 5 15
8 19 9 8 1 -13 10 -16 46 -14 25 2 45 0 45 -4 0 -3 7 -7 15 -7 8 0 15 3 15 7
0 3 9 6 19 6 11 0 18 -4 15 -7 -2 -4 0 -10 6 -14 5 -3 10 0 11 7 0 7 4 4 9 -7
8 -18 9 -18 10 5 2 16 4 19 7 8 2 -9 11 -19 20 -22 12 -5 13 -3 5 6 -8 10 -4
13 14 14 15 1 24 -4 24 -12 0 -8 5 -14 10 -14 6 0 10 6 10 13 0 8 4 7 10 -3 9
-13 10 -13 10 0 0 13 1 13 10 0 9 -13 10 -13 10 0 0 13 2 13 9 1 11 -16 51
-23 51 -8 0 5 6 4 14 -2 11 -9 15 -9 19 1 3 8 6 5 7 -7 l1 -20 9 20 c5 11 9
14 9 7 1 -10 6 -10 24 -1 19 11 20 10 10 -3 -11 -12 -8 -14 20 -12 17 1 33 3
35 4 9 8 47 1 45 -8 -2 -8 4 -9 21 -2 18 7 26 5 30 -5 3 -8 12 -12 21 -9 8 3
12 10 9 15 -3 5 2 6 10 3 9 -3 16 -11 16 -17 0 -6 6 -2 14 9 14 18 15 18 22 1
5 -15 9 -16 15 -5 7 11 9 11 9 0 0 -10 5 -9 17 4 16 15 17 15 23 -2 6 -16 7
-16 12 4 4 12 12 22 20 22 11 0 11 -2 0 -9 -11 -7 -11 -9 2 -14 9 -4 15 -1 13
6 -1 7 6 11 15 11 10 -1 16 3 15 10 -1 6 6 10 16 10 14 -2 15 1 6 12 -10 12
-9 13 6 8 12 -5 16 -4 12 3 -4 6 0 14 9 17 9 4 14 13 10 22 -3 9 -2 12 5 9 11
-7 39 12 39 27 0 5 -6 6 -12 3 -7 -4 -3 2 10 12 18 15 20 21 10 31 -11 11 -10
12 3 7 10 -4 20 -1 25 6 4 8 3 10 -4 5 -7 -4 -12 -1 -12 8 0 8 5 18 12 22 7 5
8 3 3 -6 -6 -9 -4 -11 4 -6 9 6 8 13 -6 29 -10 12 -14 19 -9 15 5 -4 15 0 22
10 9 13 10 20 1 31 -10 12 -9 14 5 8 13 -4 16 -2 11 11 -3 9 -10 23 -16 29 -6
9 -2 16 14 22 19 8 20 10 6 10 -10 1 -16 5 -12 11 12 20 8 79 -8 94 -9 9 -13
24 -10 33 5 12 3 14 -8 8 -11 -6 -12 -5 -1 6 14 15 16 33 3 25 -5 -3 -12 5
-15 18 -3 13 -19 38 -36 56 -16 18 -27 37 -23 44 4 6 0 5 -9 -2 -14 -11 -16
-10 -11 9 5 17 3 20 -8 14 -12 -7 -12 -6 -1 7 10 13 10 17 0 22 -7 3 -2 4 11
2 18 -4 21 -2 12 7 -16 16 -14 24 9 30 11 3 20 2 20 -2 0 -4 14 -6 30 -5 25 2
29 -1 20 -11 -9 -11 -7 -12 9 -8 13 3 21 1 21 -6 0 -7 -5 -9 -12 -5 -6 4 -8 3
-5 -3 3 -5 20 -8 36 -5 17 2 28 8 25 13 -3 5 -1 9 5 9 5 0 12 -6 14 -12 4 -10
6 -10 6 0 1 15 51 16 51 1 0 -5 6 -7 13 -3 7 5 6 0 -3 -11 -14 -17 -14 -18 10
-5 22 11 23 11 13 -1 -8 -10 -9 -19 -1 -29 8 -12 9 -11 4 3 -4 12 -2 17 6 14
7 -2 12 -13 10 -23 -2 -15 -1 -16 7 -5 12 18 59 21 66 3 4 -10 10 -9 30 4 21
14 25 14 25 2 0 -8 7 -15 15 -15 8 0 11 5 8 10 -4 6 0 8 10 4 9 -3 18 0 21 9
4 10 11 12 18 7 7 -4 22 -9 33 -9 41 -3 46 -4 41 -12 -2 -4 3 -8 13 -9 10 -1
24 9 31 23 10 18 16 21 27 12 11 -9 12 -7 7 8 -6 16 -2 15 20 -6 15 -14 27
-20 26 -15 -5 22 1 25 21 14 16 -8 20 -8 14 1 -4 7 1 13 14 17 11 3 19 9 16
13 -3 5 0 12 6 16 7 4 9 3 6 -3 -7 -11 22 -28 31 -18 3 3 0 5 -6 5 -7 0 -12 3
-12 8 0 4 11 7 24 7 13 0 22 -3 20 -7 -2 -4 0 -9 6 -13 5 -3 10 2 10 11 0 13
3 15 11 7 6 -6 18 -9 26 -6 7 3 13 2 12 -3 -4 -24 3 -25 26 -4 14 13 35 25 47
27 12 2 27 8 34 14 7 6 19 7 25 3 8 -4 9 -3 5 4 -4 7 -2 12 3 12 6 0 11 5 11
11 0 5 -4 8 -9 4 -5 -3 -12 -2 -15 3 -3 5 9 8 26 8 20 -1 33 5 35 14 4 13 3
13 -7 0 -10 -13 -11 -13 -8 0 3 8 16 15 31 15 14 1 24 -2 21 -7 -3 -4 -10 -5
-16 -2 -7 4 -8 2 -4 -5 6 -9 11 -9 21 -1 8 7 20 8 27 4 8 -5 8 -1 -2 11 -14
17 -14 18 10 5 23 -12 24 -12 11 3 -9 12 -10 17 -2 17 7 0 9 5 6 10 -3 6 0 10
7 11 7 0 4 4 -7 9 l-20 9 20 0 c16 1 17 3 6 10 -12 8 -12 12 -2 25 7 8 10 20
7 25 -4 5 -2 12 3 16 5 3 8 14 6 25 -2 11 0 22 6 25 5 4 9 12 9 18 0 7 -4 6
-10 -3 -5 -8 -10 -10 -10 -4 0 5 5 15 12 22 7 7 8 12 2 12 -6 0 -11 7 -11 15
0 11 4 12 14 3 11 -8 12 -7 7 6 -3 9 -1 16 5 16 6 0 11 5 11 11 0 8 -5 8 -15
-1 -15 -12 -21 -4 -16 23 1 5 -3 6 -9 2 -5 -3 -13 1 -16 9 -3 9 -11 13 -16 10
-6 -4 -5 2 1 14 15 28 14 32 -6 33 -10 0 -13 3 -6 5 7 3 9 12 6 20 -3 8 0 14
6 14 6 0 11 5 11 11 0 5 -6 7 -12 3 -10 -6 -10 -5 -1 8 7 8 9 19 5 24 -4 4 2
2 12 -6 18 -14 19 -14 7 9 -11 19 -11 22 0 16 9 -6 11 -3 6 8 -3 9 1 23 9 32
9 8 11 15 5 15 -6 0 -11 5 -11 11 0 5 5 7 10 4 13 -8 8 18 -5 27 -6 5 -3 8 6
8 12 0 15 7 11 27 -4 21 -2 25 11 20 11 -4 14 -2 10 9 -3 7 -8 14 -12 14 -10
0 -7 38 4 47 4 5 5 3 1 -4 -3 -6 -2 -14 3 -18 10 -6 5 40 -6 58 -3 6 -1 7 5 3
6 -3 13 -2 17 4 3 5 1 10 -6 10 -10 0 -10 3 -1 12 7 7 8 17 1 29 -7 13 -5 20
8 28 17 10 17 10 0 11 -10 0 -15 5 -12 10 4 6 10 8 15 5 13 -8 6 21 -9 39 -12
14 -12 16 2 11 8 -4 18 -1 23 6 4 8 3 10 -5 5 -8 -5 -10 0 -7 18 3 14 0 26 -6
26 -5 0 -7 -7 -4 -16 3 -8 2 -12 -4 -9 -17 10 -11 25 13 35 14 6 17 9 6 9 -12
1 -15 8 -11 27 4 21 2 25 -9 20 -9 -5 -9 -3 1 6 12 9 14 23 9 51 -5 30 -3 37
8 33 8 -3 12 -2 9 3 -3 4 2 17 10 27 15 19 15 19 10 0 -5 -14 -3 -16 6 -9 7 5
23 8 36 7 14 -1 21 3 18 11 -3 8 4 10 19 7 14 -2 36 4 53 16 18 14 33 18 42
12 19 -12 31 -3 23 17 -4 11 -3 14 5 9 7 -4 12 -2 12 4 0 6 4 8 10 5 5 -3 7 0
4 9 -3 8 2 17 13 20 11 3 19 16 19 31 1 15 9 34 18 44 9 10 13 22 9 26 -5 5 1
3 11 -5 18 -14 19 -13 13 3 -4 11 -1 20 8 23 8 4 12 11 8 17 -4 7 0 8 11 4 14
-6 17 -3 12 8 -3 9 -2 14 3 11 5 -3 14 1 21 9 7 8 16 13 20 10 4 -3 13 2 20
10 16 20 28 19 33 -2 4 -15 5 -15 6 2 1 17 3 18 11 5 8 -13 10 -12 10 3 0 9 6
17 14 17 8 0 16 5 18 12 6 18 38 18 38 0 1 -15 2 -15 11 1 7 12 17 15 36 11
18 -5 24 -3 19 5 -6 10 6 15 27 12 4 0 7 4 7 10 0 5 4 8 9 5 15 -10 40 5 34
20 -3 8 1 14 10 14 25 0 31 20 11 36 -11 9 -13 12 -5 8 9 -4 12 -3 7 4 -3 6
-15 9 -26 7 -13 -3 -17 1 -13 11 3 8 -1 14 -8 15 -8 0 -5 4 6 9 19 8 19 9 -2
9 -24 1 -30 15 -12 27 6 3 9 20 7 36 -3 16 0 32 5 35 6 3 7 1 3 -5 -4 -7 -3
-12 3 -12 5 0 9 9 8 20 -1 12 -7 18 -13 16 -8 -3 -11 2 -9 15 2 10 -1 19 -7
19 -6 0 -5 7 3 17 12 14 12 16 -1 9 -8 -4 -5 1 7 12 20 17 21 21 7 26 -15 6
-14 9 5 25 19 16 19 19 5 25 -13 5 -14 9 -4 21 7 8 16 13 19 10 4 -2 8 2 8 10
0 8 -6 15 -13 15 -8 0 -10 8 -6 22 4 15 2 19 -7 13 -9 -5 -12 -1 -11 11 4 33
0 37 -17 23 -11 -10 -14 -10 -9 -1 4 6 2 12 -3 12 -6 0 -11 7 -11 15 0 8 -5
15 -11 15 -5 0 -7 -6 -4 -12 4 -7 -4 -2 -16 12 -15 17 -20 19 -16 8 4 -10 2
-18 -3 -18 -6 0 -10 5 -10 12 0 6 -3 8 -7 5 -3 -4 -15 5 -25 20 -10 16 -18 23
-18 17 0 -5 6 -16 13 -24 10 -12 9 -12 -5 -1 -20 15 -24 41 -6 41 6 0 8 3 4 7
-4 5 -14 -1 -22 -11 -13 -19 -20 -10 -15 18 1 5 -6 3 -15 -5 -15 -12 -17 -12
-9 0 5 9 2 19 -10 28 -11 7 -15 13 -9 13 10 0 11 51 0 68 -4 7 -4 12 1 12 4 0
8 14 9 30 1 17 -4 30 -10 30 -7 0 -12 9 -13 20 -1 11 1 19 5 16 4 -2 7 15 7
39 0 25 -4 41 -10 38 -5 -2 -1 3 9 11 19 15 19 16 2 16 -16 0 -17 2 -5 17 10
12 11 15 1 9 -10 -6 -11 -1 -6 20 4 15 3 25 -2 21 -5 -3 -9 12 -9 34 0 21 4
39 9 39 5 0 1 9 -8 19 -11 12 -13 21 -7 25 14 9 7 86 -10 98 -11 8 -10 9 4 4
9 -3 17 -1 17 4 0 6 -5 10 -11 10 -8 0 -8 4 0 14 8 9 8 16 2 20 -6 4 -8 13 -4
22 3 8 1 14 -5 12 -5 -2 -10 2 -10 7 0 6 4 9 8 8 6 -2 7 28 1 70 -1 5 -7 5
-13 1 -9 -5 -9 -2 1 9 9 11 10 17 2 17 -6 0 -11 5 -11 11 0 5 6 7 13 3 8 -5 8
-2 -2 9 -10 13 -10 17 -1 17 7 0 2 9 -11 20 -15 12 -19 19 -10 20 9 0 12 8 9
25 -4 16 -1 22 6 18 6 -4 5 1 -2 10 -8 9 -11 21 -7 27 3 5 1 10 -6 10 -7 0 -8
4 -2 13 5 6 8 18 7 25 -1 6 -2 17 -3 23 0 5 -4 8 -8 6 -5 -3 -9 7 -9 21 -1 15
-4 37 -7 50 -3 13 -2 20 4 17 15 -10 11 5 -7 22 -13 13 -13 17 -2 24 9 6 8 9
-7 9 -17 0 -17 2 -5 10 13 8 13 10 0 10 -11 0 -11 3 -2 12 15 15 16 31 1 22
-8 -5 -10 1 -7 20 3 15 0 33 -6 39 -6 7 -13 26 -15 42 -1 17 -6 32 -10 35 -4
3 -11 14 -14 25 -6 18 -6 19 6 3 12 -15 14 -14 14 13 0 16 -3 25 -7 19 -5 -8
-9 -6 -14 5 -3 9 -11 13 -18 9 -7 -4 -5 1 4 11 15 16 15 19 -3 38 -10 11 -16
23 -13 26 4 3 9 0 11 -6 3 -7 9 -13 15 -13 6 0 4 8 -5 18 -8 9 -16 22 -17 27
-1 6 -4 12 -7 15 -4 3 -3 -1 2 -9 5 -9 4 -12 -3 -8 -5 4 -8 16 -5 27 3 11 10
17 16 13 6 -3 7 -1 3 5 -4 7 -13 12 -21 12 -7 0 -15 7 -18 14 -4 11 -1 13 11
10 9 -3 6 1 -7 9 -23 14 -24 15 -5 20 16 4 16 5 2 6 -11 1 -18 9 -18 22 0 13
-4 18 -12 13 -10 -6 -10 -4 0 8 10 13 10 19 -2 31 -8 8 -12 17 -9 21 4 3 1 6
-7 6 -10 0 -10 4 1 17 10 11 10 14 2 9 -8 -4 -13 -2 -13 4 0 6 -4 9 -8 6 -5
-3 -9 1 -9 9 0 8 4 12 8 10 6 -4 6 5 -1 35 0 3 -7 -4 -15 -14 -17 -23 -20 -14
-4 15 9 17 7 21 -10 26 -11 3 -18 9 -15 14 3 5 10 6 16 3 7 -5 8 -2 2 7 -5 8
-9 17 -9 21 0 3 -4 10 -9 15 -5 5 -6 3 -2 -4 5 -9 2 -11 -9 -7 -11 5 -13 10
-6 17 7 7 5 15 -7 24 -9 8 -11 12 -5 8 9 -4 11 -1 7 10 -5 12 -9 13 -20 4 -12
-10 -13 -8 -8 6 6 14 4 16 -7 10 -12 -8 -12 -6 0 8 12 16 8 22 -12 18 -5 -1
-6 3 -2 9 4 6 1 17 -5 25 -6 8 -9 19 -6 24 4 6 -2 8 -13 6 -15 -3 -18 1 -14
12 3 8 2 18 -3 22 -5 3 -15 19 -22 34 -7 17 -17 25 -24 21 -6 -4 -8 -3 -4 4 3
6 0 17 -8 25 -8 8 -12 17 -9 21 4 3 1 6 -6 6 -7 0 -9 5 -6 10 3 6 1 10 -4 10
-6 0 -11 6 -11 14 0 8 -5 18 -12 22 -7 4 -8 3 -4 -4 5 -8 2 -10 -8 -6 -12 4
-13 11 -6 24 8 15 6 17 -13 12 -19 -5 -20 -3 -10 10 17 19 4 31 -15 15 -11 -8
-14 -8 -9 0 4 6 1 18 -7 26 -8 8 -12 17 -9 21 4 3 -1 6 -11 6 -9 0 -14 5 -11
10 3 6 -1 10 -9 10 -9 0 -16 9 -16 21 0 11 -4 17 -10 14 -5 -3 -10 1 -10 9 0
10 -9 16 -22 16 -19 0 -20 2 -8 10 13 8 12 10 -3 10 -10 0 -15 5 -12 10 6 9
-8 14 -27 11 -5 0 -7 2 -7 7 4 25 -3 34 -22 29 -17 -5 -18 -3 -8 9 7 8 8 14 3
13 -26 -5 -36 1 -25 15 9 11 6 13 -15 10 -14 -1 -23 0 -20 3 7 7 -17 32 -26
26 -5 -2 -8 4 -8 14 0 15 -2 16 -10 3 -8 -13 -10 -12 -11 5 -1 11 -1 24 1 30
1 5 -8 1 -20 -10 -22 -20 -22 -20 -19 0 3 13 -2 21 -15 23 -24 5 -47 27 -38
36 3 4 -1 4 -11 0 -10 -3 -17 -1 -17 6 0 6 -4 9 -9 6 -5 -4 -11 0 -14 6 -3 10
-8 10 -21 -1 -9 -8 -16 -10 -15 -5 5 26 -4 42 -28 53 l-28 12 25 -21 25 -21
-27 12 c-16 7 -28 19 -28 28 0 13 -2 13 -9 3 -7 -11 -9 -11 -14 2 -4 10 -13
13 -24 9 -16 -6 -17 -5 -3 12 10 12 10 16 2 11 -7 -4 -20 -2 -30 6 -15 11 -15
11 -5 -3 10 -13 10 -16 -2 -16 -8 0 -15 4 -15 9 0 5 -6 6 -12 2 -7 -4 -4 3 7
17 11 13 13 18 4 12 -11 -9 -19 -9 -26 -2 -7 7 -13 8 -17 0 -8 -12 -36 -3 -36
11 0 6 8 4 18 -3 15 -13 16 -12 3 3 -10 14 -17 15 -33 7 -15 -8 -19 -8 -14 0
4 6 1 11 -8 11 -8 0 -16 -3 -19 -7 -2 -5 -2 -2 -1 4 2 7 -5 17 -16 23 -16 9
-19 8 -14 -7 4 -13 -1 -10 -16 7 -15 17 -20 19 -16 7 5 -16 4 -16 -19 -1 -13
9 -29 13 -34 9 -7 -4 -8 1 -4 12 3 10 2 15 -2 10 -5 -4 -19 0 -31 8 -19 12
-22 13 -18 1 3 -8 0 -17 -7 -22 -8 -4 -10 -3 -5 4 4 7 2 12 -4 12 -6 0 -8 5
-5 10 8 13 -1 13 -28 -1 -18 -9 -20 -9 -9 2 6 7 12 18 12 24 0 5 -5 3 -10 -5
-9 -13 -11 -13 -20 0 -9 13 -10 13 -10 0 0 -12 -2 -12 -8 -2 -5 7 -16 10 -24
7 -8 -3 -22 1 -31 9 -8 8 -18 12 -22 8 -5 -4 -5 2 -1 12 5 15 4 17 -7 7 -12
-9 -14 -5 -13 26 1 27 6 38 17 37 8 -1 16 8 16 19 1 11 11 29 23 42 11 12 17
25 13 30 -5 4 -2 5 5 1 11 -6 9 -13 -7 -30 -12 -12 -21 -26 -21 -30 0 -5 10 4
23 20 12 16 21 32 20 36 -2 5 2 8 8 8 8 0 7 6 -2 17 -9 11 -10 14 -2 9 7 -4
21 -2 30 4 16 11 16 11 1 6 -10 -3 -20 0 -24 6 -4 7 -3 8 5 4 6 -4 14 0 17 9
5 12 9 13 14 5 5 -8 10 -2 14 14 4 18 11 24 19 19 7 -4 7 0 -2 10 -8 10 -11
20 -7 24 3 3 6 1 6 -5 0 -6 7 -9 16 -5 12 5 13 7 3 14 -10 6 -7 11 11 18 14 5
18 10 10 11 -9 0 -6 6 10 15 14 8 20 14 14 15 -6 0 -11 7 -11 15 0 11 3 12 14
3 8 -6 13 -7 12 -2 -4 22 2 35 13 28 6 -4 8 -3 4 4 -3 5 0 13 6 16 7 3 2 3
-12 0 -19 -4 -22 -3 -10 5 8 6 15 15 15 20 0 6 9 17 20 26 11 9 13 13 5 9 -13
-7 -13 -5 -2 9 8 9 10 22 6 28 -4 8 -3 9 4 5 7 -4 12 -1 12 8 0 9 5 16 11 16
5 0 7 -5 3 -12 -4 -7 -3 -8 5 -4 7 5 9 12 3 19 -16 20 -11 49 7 42 12 -5 13
-3 4 6 -9 9 -7 16 7 32 14 15 17 25 10 38 -7 12 -6 19 2 21 6 2 13 15 15 29 2
19 1 21 -7 9 -6 -9 -10 -10 -10 -3 0 6 5 15 11 19 6 3 8 15 6 26 -4 15 -2 17
7 9 11 -9 13 -1 10 39 -1 27 1 50 5 50 5 0 6 11 3 25 -2 14 2 32 9 41 10 13
10 17 0 24 -10 6 -11 9 -1 15 9 6 6 13 -11 27 -23 19 -23 19 -1 8 18 -9 22 -8
22 4 0 8 3 16 8 19 4 2 1 2 -5 1 -7 -2 -13 1 -13 5 0 5 6 12 13 14 8 4 8 6 -2
6 -11 1 -10 5 5 15 18 14 18 15 -5 24 l-25 9 23 6 c20 5 21 8 9 29 -7 13 -17
26 -23 30 -6 5 -3 8 7 8 18 0 15 33 -6 59 -9 12 -8 13 2 7 10 -6 13 -3 10 10
-2 11 3 25 12 32 13 11 11 12 -10 7 -18 -5 -21 -4 -11 3 8 6 11 17 8 26 -4 11
-1 16 11 16 11 0 13 3 6 8 -19 12 -21 46 -4 60 8 8 10 11 3 8 -6 -4 -15 -2
-18 4 -4 6 -1 9 6 8 7 -2 13 2 14 9 0 6 4 15 9 20 5 4 7 3 3 -2 -3 -6 3 -17
15 -24 11 -7 17 -8 14 -2 -9 14 12 53 24 46 5 -3 14 3 20 12 11 16 11 16 6 -2
-6 -18 -4 -18 12 3 14 18 20 20 31 10 11 -10 12 -10 7 0 -4 6 -3 12 2 12 6 0
9 8 8 18 0 10 6 16 16 16 10 -1 16 2 13 6 -3 5 7 17 21 28 20 14 24 21 14 27
-9 6 -11 4 -5 -5 5 -9 4 -11 -4 -6 -6 4 -9 12 -5 17 3 5 10 7 15 4 5 -4 9 1 9
10 0 9 -5 13 -11 9 -7 -4 -10 -1 -7 7 3 8 -2 20 -11 27 -14 10 -13 11 4 5 17
-6 18 -4 8 8 -10 12 -8 19 8 33 17 14 18 20 8 32 -10 12 -9 13 5 8 13 -5 15
-2 9 12 -6 17 -5 18 13 4 15 -11 16 -11 7 0 -7 8 -13 22 -13 31 0 10 -6 20
-12 22 -10 4 -10 6 0 6 9 1 10 6 3 20 -6 10 -7 22 -3 26 4 5 1 5 -5 1 -7 -4
-13 -2 -13 4 0 6 -6 8 -12 5 -7 -4 -5 0 5 8 18 15 18 16 -5 31 -25 16 -29 39
-13 65 6 10 4 12 -5 6 -9 -6 -10 -2 -5 15 5 17 4 21 -6 15 -11 -6 -12 -5 -1 6
16 17 15 29 -2 29 -8 0 -18 4 -21 10 -4 6 1 7 12 4 17 -5 17 -5 1 9 -10 8 -18
18 -18 22 0 4 -9 16 -21 26 -16 13 -20 27 -17 56 3 35 1 38 -23 37 -20 0 -25
4 -21 15 3 8 1 12 -5 8 -6 -4 -14 0 -17 9 -3 8 -2 12 3 9 5 -3 12 -1 16 5 5 8
-13 14 -36 12 -3 -1 -6 6 -6 13 0 12 3 12 16 2 12 -9 13 -9 7 0 -4 7 -16 18
-26 23 -16 9 -18 8 -13 -6 4 -12 3 -15 -5 -10 -7 4 -12 13 -12 21 0 7 -6 16
-12 18 -10 4 -9 8 2 16 8 6 10 11 5 11 -6 0 -16 -5 -21 -10 -7 -7 -11 -6 -11
5 0 8 4 15 9 15 5 0 7 4 3 10 -3 5 -13 6 -23 3 -15 -5 -15 -4 1 8 16 13 16 16
2 34 -9 11 -13 13 -9 5 7 -12 5 -13 -8 -3 -8 7 -19 9 -23 5 -5 -4 -5 1 -2 11
4 11 3 16 -3 12 -6 -3 -10 -1 -10 6 0 9 -3 9 -14 0 -12 -10 -14 -8 -9 11 4 18
3 20 -6 8 -9 -12 -11 -10 -11 12 0 14 -6 29 -12 31 -7 3 -2 6 11 6 l23 1 -23
19 -24 20 24 9 25 9 -25 7 c-22 6 -23 7 -6 20 17 13 17 14 0 21 -17 6 -17 7
-1 19 15 11 15 13 0 25 -14 9 -14 11 -2 8 13 -4 15 5 14 47 0 28 4 58 10 66 9
13 9 13 -6 2 -12 -10 -18 -10 -24 -1 -4 8 -3 9 4 5 8 -5 12 1 12 14 0 14 4 19
13 14 7 -5 6 0 -3 11 -9 11 -10 16 -2 11 6 -4 12 -2 12 3 0 6 -5 11 -12 11 -9
0 -9 3 0 12 14 14 16 32 2 23 -6 -3 -7 1 -4 9 3 9 11 13 17 9 6 -4 7 -1 1 8
-12 20 -11 41 2 59 6 8 11 32 10 52 -1 20 1 35 4 33 3 -2 11 5 18 15 10 16 9
18 -6 14 -15 -5 -15 -4 -2 8 8 7 15 28 15 46 -1 19 4 32 12 32 6 0 10 9 8 20
-4 20 31 54 46 44 4 -2 10 0 14 6 3 5 11 10 16 10 6 0 7 -6 3 -12 -5 -9 -2 -9
9 1 13 10 17 10 17 1 0 -9 4 -9 17 1 14 12 16 12 8 0 -6 -11 -4 -13 10 -7 15
5 16 4 5 -9 -7 -9 -10 -18 -6 -22 3 -3 6 -1 6 5 0 6 7 9 15 6 8 -4 12 -11 9
-18 -3 -6 2 -2 10 8 9 11 16 14 16 7 0 -7 5 -9 13 -5 7 5 6 0 -3 -11 -9 -11
-10 -16 -2 -11 7 4 12 2 12 -5 0 -9 3 -9 14 0 11 9 16 9 22 0 4 -7 3 -9 -3 -6
-5 3 -10 0 -10 -7 0 -10 7 -11 30 -2 25 10 31 8 47 -12 12 -15 21 -19 26 -11
4 8 9 7 15 -2 7 -12 9 -11 9 0 0 11 4 10 16 -5 14 -17 15 -17 10 -1 -5 17 -5
17 19 0 13 -10 25 -24 25 -31 0 -7 5 -10 11 -6 8 5 10 -1 7 -17 -3 -19 0 -25
14 -27 42 -4 48 -6 49 -14 1 -4 2 -14 3 -20 1 -7 9 -12 19 -10 9 2 17 -2 17
-8 0 -5 9 -10 20 -10 11 0 20 -4 20 -10 0 -5 5 -10 11 -10 5 0 7 5 3 11 -5 8
3 10 24 7 24 -3 29 -1 24 11 -5 14 -4 14 10 1 9 -8 13 -19 11 -24 -3 -5 0 -6
8 -4 8 3 13 11 11 18 -2 8 5 9 19 5 12 -4 19 -3 16 2 -3 5 5 9 19 9 14 0 24
-6 24 -14 0 -7 5 -10 10 -7 6 4 8 11 5 16 -4 5 -1 9 4 9 6 0 11 -6 11 -12 0
-9 3 -10 8 -2 11 17 35 22 54 12 14 -7 16 -5 11 9 -5 15 -4 16 8 7 46 -35 88
-16 64 29 -13 26 -13 27 8 16 l22 -12 -20 23 c-11 13 -14 20 -6 15 11 -6 13
-4 8 8 -7 17 15 41 28 29 5 -4 6 0 3 8 -4 12 1 15 21 14 36 -2 43 4 31 25 -13
25 20 57 40 38 10 -10 12 -9 7 5 -4 11 -1 15 11 13 9 -2 21 -4 25 -4 5 -1 5
-6 1 -13 -4 -7 -3 -8 5 -4 6 4 9 12 6 17 -4 5 1 10 9 10 9 1 22 2 29 3 6 1 17
-2 24 -6 6 -5 14 -4 18 3 6 8 9 8 15 -1 4 -7 26 -13 48 -14 26 -1 37 3 32 9
-5 6 10 11 41 12 37 2 48 -1 43 -10 -4 -7 -4 -9 1 -5 4 4 15 2 24 -5 14 -11
14 -10 2 6 -11 14 -11 21 -3 29 9 9 12 9 12 0 0 -7 5 -12 11 -12 6 0 8 7 5 16
-5 13 -1 15 23 12 17 -2 28 -1 25 3 -5 9 32 50 39 43 3 -3 4 3 4 13 -2 12 5
18 19 17 12 0 20 4 18 10 -2 6 6 17 18 25 21 13 22 13 10 -2 -10 -12 -10 -17
-1 -23 8 -4 9 -3 5 5 -4 6 -1 13 6 16 18 7 21 47 5 57 -7 5 -3 8 13 9 23 0 23
1 5 9 -11 5 -14 9 -6 9 8 1 11 7 7 17 -5 14 -4 15 8 5 12 -10 14 -9 9 7 -2 11
1 23 8 27 7 5 10 4 5 -3 -3 -6 -1 -14 5 -18 7 -4 9 -3 5 4 -3 6 2 18 11 28 17
17 17 18 -1 11 -20 -8 -20 -7 -1 13 19 20 19 21 0 14 -18 -7 -18 -6 2 28 l21
36 -22 -5 c-16 -4 -18 -2 -7 5 14 10 24 51 12 50 -3 0 -13 0 -21 2 -11 1 -9 4
5 10 16 7 17 9 3 9 -9 1 -20 6 -23 11 -4 6 -3 10 2 9 23 -4 32 2 26 18 -4 9
-2 14 3 10 6 -4 9 6 6 23 -2 17 -9 27 -14 24 -6 -4 -5 4 2 16 9 17 9 21 0 15
-8 -5 -11 -1 -8 11 2 11 -3 25 -12 32 -13 11 -13 11 3 6 13 -5 16 -2 11 9 -3
8 0 18 7 23 7 4 10 3 5 -4 -3 -6 -2 -13 3 -16 5 -4 8 2 6 11 -1 10 -8 17 -15
15 -8 -2 -10 3 -7 13 4 9 1 15 -9 15 -8 0 -12 5 -9 10 4 6 10 8 14 6 4 -3 8 1
8 9 0 8 -4 12 -8 9 -4 -2 -10 0 -13 5 -4 5 -2 12 4 16 5 3 10 11 10 16 0 6 -6
7 -12 3 -10 -6 -10 -4 -2 7 13 16 15 51 2 43 -5 -3 -5 -10 -2 -16 4 -7 2 -8
-4 -4 -6 4 -9 13 -5 21 3 8 1 15 -5 15 -5 0 -12 7 -15 14 -4 10 -1 13 8 10 12
-5 11 0 -2 27 -12 24 -13 34 -5 37 7 2 9 8 6 13 -3 6 0 17 8 26 9 12 9 15 1 9
-9 -5 -11 -2 -7 9 5 13 1 15 -19 11 -19 -3 -24 -1 -20 10 3 8 0 14 -7 14 -6 0
-8 5 -5 10 3 6 0 10 -7 10 -10 0 -10 2 1 9 9 6 10 10 2 12 -6 2 -12 18 -14 36
-1 17 -5 29 -9 27 -4 -3 -17 6 -29 18 -12 13 -19 17 -14 10 6 -11 3 -11 -13
-1 -12 7 -19 16 -16 20 2 4 -5 10 -16 14 -13 4 -20 15 -20 31 0 13 -4 24 -10
24 -5 0 -10 9 -10 21 0 11 -4 17 -10 14 -5 -3 -10 2 -11 12 0 16 -1 16 -9 -2
-8 -19 -9 -19 -9 -1 -1 16 -3 17 -18 5 -11 -10 -14 -10 -9 -1 4 7 2 12 -4 12
-6 0 -8 5 -4 13 5 7 0 6 -11 -3 -11 -9 -16 -10 -11 -2 5 8 -2 12 -24 12 -22 0
-29 4 -24 13 5 7 0 6 -11 -3 -11 -9 -16 -10 -11 -2 4 6 3 12 -3 12 -5 0 -12
-6 -15 -12 -3 -7 -3 -3 0 10 4 15 1 22 -8 20 -7 -2 -12 5 -12 14 1 10 -4 14
-12 11 -10 -4 -12 0 -8 13 6 18 6 18 -8 0 -12 -15 -17 -16 -23 -6 -5 8 -4 11
2 7 5 -3 10 0 10 8 0 11 -4 12 -13 4 -7 -6 -18 -8 -24 -4 -5 3 -10 1 -10 -5 0
-8 -5 -8 -17 -1 -13 7 -23 5 -38 -7 -18 -16 -19 -16 -7 0 16 20 6 27 -36 26
-28 -1 -30 -3 -19 -17 10 -14 10 -14 -4 -4 -9 7 -20 9 -24 5 -5 -4 -6 0 -2 9
4 13 1 16 -15 11 -11 -3 -24 1 -29 9 -7 12 -9 12 -9 0 0 -11 -3 -11 -17 0 -15
11 -16 11 -5 -1 17 -19 15 -27 -8 -33 -14 -4 -20 0 -20 11 0 15 -2 15 -10 2
-8 -13 -11 -12 -23 4 -12 17 -15 17 -29 2 -15 -15 -17 -14 -21 6 -2 13 -5 17
-6 9z m-211 -56 c-7 -9 -15 -13 -19 -10 -3 3 1 10 9 15 21 14 24 12 10 -5z
m-686 -403 c3 -5 -1 -9 -9 -9 -8 0 -15 4 -15 9 0 4 4 8 9 8 6 0 12 -4 15 -8z
m-3264 -911 c0 -5 -7 -12 -16 -15 -14 -5 -15 -4 -4 9 14 17 20 19 20 6z m-40
-20 c0 -5 -7 -12 -16 -15 -14 -5 -15 -4 -4 9 14 17 20 19 20 6z m-223 -136 c0
-8 -4 -12 -9 -9 -5 3 -6 10 -3 15 9 13 12 11 12 -6z m3953 5 c0 -5 -2 -10 -4
-10 -3 0 -8 5 -11 10 -3 6 -1 10 4 10 6 0 11 -4 11 -10z m220 -134 c0 -2 -7
-7 -16 -10 -8 -3 -12 -2 -9 4 6 10 25 14 25 6z m400 0 c0 -3 -4 -8 -10 -11 -5
-3 -10 -1 -10 4 0 6 5 11 10 11 6 0 10 -2 10 -4z m-5845 -1034 c-3 -3 -11 0
-18 7 -9 10 -8 11 6 5 10 -3 15 -9 12 -12z m5145 -448 c0 -8 -19 -13 -24 -6
-3 5 1 9 9 9 8 0 15 -2 15 -3z m-3380 -68 c0 -2 -7 -7 -16 -10 -8 -3 -12 -2
-9 4 6 10 25 14 25 6z m46 -28 l19 -23 -25 20 c-14 11 -27 21 -29 22 -2 2 0 3
6 3 5 0 18 -10 29 -22z m1038 14 c2 -4 -5 -9 -17 -9 -17 -2 -19 0 -7 7 18 12
18 12 24 2z m47 -10 c-7 -2 -18 1 -23 6 -8 8 -4 9 13 5 13 -4 18 -8 10 -11z
m96 -8 c-3 -3 -12 -4 -19 -1 -8 3 -5 6 6 6 11 1 17 -2 13 -5z m837 -2 c3 -5
-1 -9 -9 -9 -8 0 -12 4 -9 9 3 4 7 8 9 8 2 0 6 -4 9 -8z m-1889 -12 c-3 -5
-14 -10 -23 -9 -14 0 -13 2 3 9 27 11 27 11 20 0z m42 4 c-3 -3 -12 -4 -19 -1
-8 3 -5 6 6 6 11 1 17 -2 13 -5z m74 -31 c13 -16 12 -17 -3 -4 -17 13 -22 21
-14 21 2 0 10 -8 17 -17z m59 13 c0 -2 -7 -7 -16 -10 -8 -3 -12 -2 -9 4 6 10
25 14 25 6z m37 -2 c-3 -3 -12 -4 -19 -1 -8 3 -5 6 6 6 11 1 17 -2 13 -5z m86
-1 c-7 -2 -21 -2 -30 0 -10 3 -4 5 12 5 17 0 24 -2 18 -5z m57 -19 c0 -2 -9 0
-20 6 -11 6 -20 13 -20 16 0 2 9 0 20 -6 11 -6 20 -13 20 -16z m1430 22 c0 -2
-8 -10 -17 -17 -16 -13 -17 -12 -4 4 13 16 21 21 21 13z m-2601 -9 c-2 -1 -13
-9 -24 -17 -19 -14 -19 -14 -6 3 7 9 18 17 24 17 6 0 8 -1 6 -3z m44 -4 c-7
-2 -19 -2 -25 0 -7 3 -2 5 12 5 14 0 19 -2 13 -5z m42 -11 c-3 -3 -11 0 -18 7
-9 10 -8 11 6 5 10 -3 15 -9 12 -12z m485 15 c0 -2 -10 -12 -22 -23 l-23 -19
19 23 c18 21 26 27 26 19z m680 -7 c11 -8 7 -9 -15 -4 -37 8 -45 14 -19 14 10
0 26 -5 34 -10z m110 -10 c8 -5 11 -10 5 -10 -5 0 -17 5 -25 10 -8 5 -10 10
-5 10 6 0 17 -5 25 -10z m-1105 -10 c4 -6 -7 -10 -27 -9 -31 1 -32 1 -8 9 14
4 26 8 27 9 1 1 5 -3 8 -9z m39 2 c3 -5 -1 -9 -9 -9 -8 0 -12 4 -9 9 3 4 7 8
9 8 2 0 6 -4 9 -8z m1023 2 c-3 -3 -12 -4 -19 -1 -8 3 -5 6 6 6 11 1 17 -2 13
-5z m-1130 -10 c-3 -3 -12 -4 -19 -1 -8 3 -5 6 6 6 11 1 17 -2 13 -5z m2343 3
c0 -2 -15 -13 -32 -26 l-33 -22 28 25 c26 24 37 31 37 23z m-2577 -27 c-3 -11
-9 -20 -15 -20 -5 0 -4 9 2 20 6 11 12 20 14 20 2 0 2 -9 -1 -20z m440 13 c-7
-2 -19 -2 -25 0 -7 3 -2 5 12 5 14 0 19 -2 13 -5z m1700 0 c-7 -2 -19 -2 -25
0 -7 3 -2 5 12 5 14 0 19 -2 13 -5z m752 -11 c-3 -3 -11 0 -18 7 -9 10 -8 11
6 5 10 -3 15 -9 12 -12z m-2363 -5 c-14 -6 -26 -7 -32 -1 -5 5 4 9 23 10 30 1
30 1 9 -9z m1561 6 c-7 -2 -21 -2 -30 0 -10 3 -4 5 12 5 17 0 24 -2 18 -5z
m234 -29 c-3 -3 -12 -4 -19 -1 -8 3 -5 6 6 6 11 1 17 -2 13 -5z m693 -41 c0
-7 -39 17 -46 28 -3 6 5 3 20 -6 14 -10 26 -19 26 -22z m-635 17 c3 -6 -1 -7
-9 -4 -18 7 -21 14 -7 14 6 0 13 -4 16 -10z m755 0 c0 -5 -8 -10 -17 -10 -15
0 -16 2 -3 10 19 12 20 12 20 0z m-77 -7 c-7 -2 -19 -2 -25 0 -7 3 -2 5 12 5
14 0 19 -2 13 -5z m-3076 -60 c-3 -10 -5 -4 -5 12 0 17 2 24 5 18 2 -7 2 -21
0 -30z m3248 27 c3 -6 -1 -7 -9 -4 -18 7 -21 14 -7 14 6 0 13 -4 16 -10z m44
-44 c-3 -3 -11 5 -18 17 -13 21 -12 21 5 5 10 -10 16 -20 13 -22z m-3325 -190
c-3 -9 -10 -16 -15 -16 -5 0 -4 9 3 20 14 22 21 20 12 -4z m-494 4 c0 -5 -5
-10 -11 -10 -5 0 -7 5 -4 10 3 6 8 10 11 10 2 0 4 -4 4 -10z m3847 -52 c-3 -7
-5 -2 -5 12 0 14 2 19 5 13 2 -7 2 -19 0 -25z m-3370 -7 c0 -11 -5 -18 -9 -15
-4 3 -5 11 -1 19 7 21 12 19 10 -4z m-10 -93 c-3 -7 -5 -2 -5 12 0 14 2 19 5
13 2 -7 2 -19 0 -25z m3396 12 c3 -11 1 -18 -4 -14 -5 3 -9 12 -9 20 0 20 7
17 13 -6z m-3396 -82 c-3 -7 -5 -2 -5 12 0 14 2 19 5 13 2 -7 2 -19 0 -25z
m3400 -20 c-3 -8 -6 -5 -6 6 -1 11 2 17 5 13 3 -3 4 -12 1 -19z m0 -55 c-3
-10 -5 -4 -5 12 0 17 2 24 5 18 2 -7 2 -21 0 -30z m-3383 1 c3 -8 2 -12 -4 -9
-6 3 -10 10 -10 16 0 14 7 11 14 -7z m1481 -4 c-3 -5 -12 -10 -18 -10 -7 0 -6
4 3 10 19 12 23 12 15 0z m75 -54 c0 -2 -12 -11 -27 -20 l-28 -17 24 20 c23
21 31 25 31 17z m1823 -11 c-3 -9 -8 -14 -10 -11 -3 3 -2 9 2 15 9 16 15 13 8
-4z m-3332 -12 c13 -16 12 -17 -3 -4 -10 7 -18 15 -18 17 0 8 8 3 21 -13z
m1879 13 c0 -2 -7 -7 -16 -10 -8 -3 -12 -2 -9 4 6 10 25 14 25 6z m71 -23 c13
-16 12 -17 -3 -4 -10 7 -18 15 -18 17 0 8 8 3 21 -13z m-1906 -21 c-3 -3 -11
0 -18 7 -9 10 -8 11 6 5 10 -3 15 -9 12 -12z m3769 9 c3 -5 -2 -15 -12 -22
-15 -12 -16 -12 -5 2 7 9 10 19 6 22 -3 4 -4 7 0 7 3 0 8 -4 11 -9z m-2027
-23 c-3 -8 -6 -5 -6 6 -1 11 2 17 5 13 3 -3 4 -12 1 -19z m209 -20 l29 -33
-32 29 c-31 28 -38 36 -30 36 2 0 16 -15 33 -32z m1307 7 c-3 -9 -8 -14 -10
-11 -3 3 -2 9 2 15 9 16 15 13 8 -4z m-3202 -12 c13 -16 12 -17 -3 -4 -10 7
-18 15 -18 17 0 8 8 3 21 -13z m1234 7 c3 -5 1 -10 -4 -10 -6 0 -11 5 -11 10
0 6 2 10 4 10 3 0 8 -4 11 -10z m112 -12 c-3 -8 -6 -5 -6 6 -1 11 2 17 5 13 3
-3 4 -12 1 -19z m-1287 -28 c0 -5 -2 -10 -4 -10 -3 0 -8 5 -11 10 -3 6 -1 10
4 10 6 0 11 -4 11 -10z m187 4 c-3 -3 -12 -4 -19 -1 -8 3 -5 6 6 6 11 1 17 -2
13 -5z m46 -1 c-7 -2 -19 -2 -25 0 -7 3 -2 5 12 5 14 0 19 -2 13 -5z m1057
-28 c0 -5 -5 -3 -10 5 -5 8 -10 20 -10 25 0 6 5 3 10 -5 5 -8 10 -19 10 -25z
m-1235 15 c3 -6 -1 -7 -9 -4 -18 7 -21 14 -7 14 6 0 13 -4 16 -10z m1815 -15
c14 -19 14 -19 -2 -6 -10 7 -18 18 -18 24 0 6 1 8 3 6 1 -2 9 -13 17 -24z
m1200 -30 c-7 -8 -17 -15 -23 -15 -6 0 -2 7 9 15 25 19 30 19 14 0z m-2443 -1
c-3 -3 -12 -4 -19 -1 -8 3 -5 6 6 6 11 1 17 -2 13 -5z m86 -11 c-7 -2 -19 -2
-25 0 -7 3 -2 5 12 5 14 0 19 -2 13 -5z m612 -13 c10 -11 16 -20 13 -20 -3 0
-13 9 -23 20 -10 11 -16 20 -13 20 3 0 13 -9 23 -20z m788 3 c-7 -2 -19 -2
-25 0 -7 3 -2 5 12 5 14 0 19 -2 13 -5z m900 -17 c-10 -13 -20 -22 -22 -20 -4
4 29 44 36 44 2 0 -4 -11 -14 -24z m-326 8 c-3 -3 -12 -4 -19 -1 -8 3 -5 6 6
6 11 1 17 -2 13 -5z m-1250 -60 c-5 -5 -57 13 -57 20 0 3 14 0 31 -6 16 -6 28
-12 26 -14z m1443 0 c0 -2 -9 0 -20 6 -11 6 -20 13 -20 16 0 2 9 0 20 -6 11
-6 20 -13 20 -16z m-1160 12 c0 -2 -8 -10 -17 -17 -16 -13 -17 -12 -4 4 13 16
21 21 21 13z m1197 -12 c-3 -3 -12 -4 -19 -1 -8 3 -5 6 6 6 11 1 17 -2 13 -5z
m-1412 -32 c-3 -3 -11 0 -18 7 -9 10 -8 11 6 5 10 -3 15 -9 12 -12z m175 14
c0 -2 -8 -10 -17 -17 -16 -13 -17 -12 -4 4 13 16 21 21 21 13z m-107 -23 c-7
-2 -19 -2 -25 0 -7 3 -2 5 12 5 14 0 19 -2 13 -5z m67 3 c0 -2 -7 -7 -16 -10
-8 -3 -12 -2 -9 4 6 10 25 14 25 6z m-2589 -839 c-6 -8 -7 -18 -3 -22 4 -5 1
-5 -6 -1 -10 6 -10 11 -1 22 6 8 14 14 16 14 3 0 0 -6 -6 -13z m-701 -738 c-7
-11 -14 -18 -17 -15 -3 3 0 12 7 21 18 21 23 19 10 -6z m-235 -489 c3 -5 -1
-10 -10 -10 -9 0 -13 5 -10 10 3 6 8 10 10 10 2 0 7 -4 10 -10z m6905 -600 c0
-5 -5 -10 -11 -10 -5 0 -7 5 -4 10 3 6 8 10 11 10 2 0 4 -4 4 -10z m25 -480
c3 -5 1 -10 -4 -10 -6 0 -11 5 -11 10 0 6 2 10 4 10 3 0 8 -4 11 -10z m-7018
-1862 c-3 -8 -6 -5 -6 6 -1 11 2 17 5 13 3 -3 4 -12 1 -19z m6484 -265 c12
-16 12 -17 -2 -6 -9 7 -20 9 -24 5 -5 -4 -5 -1 -1 6 9 16 11 15 27 -5z m-794
-465 c-3 -8 -6 -5 -6 6 -1 11 2 17 5 13 3 -3 4 -12 1 -19z m233 18 c0 -2 -8
-10 -17 -17 -16 -13 -17 -12 -4 4 13 16 21 21 21 13z m-4933 -501 c0 -8 -4
-12 -9 -9 -5 3 -6 10 -3 15 9 13 12 11 12 -6z m283 -35 c0 -5 -2 -10 -4 -10
-3 0 -8 5 -11 10 -3 6 -1 10 4 10 6 0 11 -4 11 -10z m840 0 c0 -5 -4 -10 -10
-10 -5 0 -10 5 -10 10 0 6 5 10 10 10 6 0 10 -4 10 -10z m2097 -82 c-3 -8 -6
-5 -6 6 -1 11 2 17 5 13 3 -3 4 -12 1 -19z"/>
<path d="M7857 10673 c-4 -3 -7 -11 -7 -17 0 -6 5 -5 12 2 6 6 9 14 7 17 -3 3
-9 2 -12 -2z"/>
<path d="M7303 10125 c0 -8 4 -12 9 -9 5 3 6 10 3 15 -9 13 -12 11 -12 -6z"/>
<path d="M4806 9758 c3 -5 10 -6 15 -3 13 9 11 12 -6 12 -8 0 -12 -4 -9 -9z"/>
<path d="M4780 9751 c0 -7 -5 -9 -12 -5 -7 5 -8 3 -3 -5 5 -9 10 -10 18 -2 6
6 8 14 4 18 -4 3 -7 1 -7 -6z"/>
<path d="M4475 9620 c-3 -5 -2 -10 4 -10 5 0 13 5 16 10 3 6 2 10 -4 10 -5 0
-13 -4 -16 -10z"/>
<path d="M8511 9316 c-9 -10 -7 -17 6 -27 16 -12 17 -12 6 2 -10 12 -10 18 -1
27 7 7 9 12 6 12 -3 0 -11 -6 -17 -14z"/>
<path d="M8425 9230 c-3 -5 -1 -10 4 -10 6 0 11 5 11 10 0 6 -2 10 -4 10 -3 0
-8 -4 -11 -10z"/>
<path d="M7394 9050 c0 -13 4 -16 10 -10 7 7 7 13 0 20 -6 6 -10 3 -10 -10z"/>
<path d="M2718 8443 c6 -2 9 -10 6 -15 -4 -7 -2 -8 5 -4 13 9 5 26 -12 25 -9
0 -8 -2 1 -6z"/>
<path d="M7730 7776 c0 -2 7 -7 16 -10 8 -3 12 -2 9 4 -6 10 -25 14 -25 6z"/>
<path d="M2700 7729 c0 -5 5 -7 10 -4 6 3 10 8 10 11 0 2 -4 4 -10 4 -5 0 -10
-5 -10 -11z"/>
<path d="M7366 6528 c3 -5 10 -6 15 -3 13 9 11 12 -6 12 -8 0 -12 -4 -9 -9z"/>
<path d="M7150 6070 c0 -5 5 -10 11 -10 5 0 7 5 4 10 -3 6 -8 10 -11 10 -2 0
-4 -4 -4 -10z"/>
<path d="M2763 5583 c0 -9 4 -10 14 -2 7 6 13 12 13 14 0 1 -6 2 -13 2 -8 0
-14 -6 -14 -14z"/>
<path d="M2530 5369 c0 -5 5 -7 10 -4 6 3 10 8 10 11 0 2 -4 4 -10 4 -5 0 -10
-5 -10 -11z"/>
<path d="M2380 5220 c-9 -6 -10 -10 -3 -10 6 0 15 5 18 10 8 12 4 12 -15 0z"/>
<path d="M2020 4740 c-9 -6 -10 -10 -3 -10 6 0 15 5 18 10 8 12 4 12 -15 0z"/>
<path d="M8775 4150 c3 -5 8 -10 11 -10 2 0 4 5 4 10 0 6 -5 10 -11 10 -5 0
-7 -4 -4 -10z"/>
<path d="M8790 3930 c0 -5 5 -10 11 -10 5 0 7 5 4 10 -3 6 -8 10 -11 10 -2 0
-4 -4 -4 -10z"/>
<path d="M8828 3553 c7 -3 16 -2 19 1 4 3 -2 6 -13 5 -11 0 -14 -3 -6 -6z"/>
<path d="M8785 2320 c-3 -5 -1 -10 4 -10 6 0 11 5 11 10 0 6 -2 10 -4 10 -3 0
-8 -4 -11 -10z"/>
<path d="M8687 2223 c-11 -11 -8 -20 7 -20 8 0 12 6 9 14 -6 15 -7 15 -16 6z"/>
<path d="M8555 2079 c-4 -6 -4 -13 -1 -16 3 -4 6 -1 6 6 0 7 5 9 12 5 7 -4 8
-3 4 4 -9 15 -13 15 -21 1z"/>
<path d="M1764 998 c-4 -7 -4 -10 1 -6 4 4 15 2 24 -5 14 -11 14 -10 2 6 -16
20 -18 21 -27 5z"/>
<path d="M8067 803 c-11 -11 -8 -20 7 -20 8 0 12 6 9 14 -6 15 -7 15 -16 6z"/>
<path d="M7610 741 c0 -6 4 -13 10 -16 6 -3 7 1 4 9 -7 18 -14 21 -14 7z"/>
<path d="M7656 728 c3 -5 10 -6 15 -3 13 9 11 12 -6 12 -8 0 -12 -4 -9 -9z"/>
<path d="M6270 106 c0 -2 7 -7 16 -10 8 -3 12 -2 9 4 -6 10 -25 14 -25 6z"/>
<path d="M6931 44 c0 -11 3 -14 6 -6 3 7 2 16 -1 19 -3 4 -6 -2 -5 -13z"/>
</g>
</svg>
